<?xml version="1.0" standalone="no"?>
<!DOCTYPE svg PUBLIC "-//W3C//DTD SVG 1.1//EN" "http://www.w3.org/Graphics/SVG/1.1/DTD/svg11.dtd" >
<svg xmlns="http://www.w3.org/2000/svg">
<metadata>
This is a custom SVG webfont generated by Font Squirrel.
Copyright   :  Drew Wilson wwwdrewwilsoncom
Designer    : Drew Wilson
Foundry     : Drew Wilson wwwdrewwilsoncom
Foundry URL : httpwwwdrewwilsoncom
</metadata>
<defs>
<font id="PictosRIPRegular" horiz-adv-x="1884" >
<font-face units-per-em="2048" ascent="1536" descent="-512" />
<missing-glyph horiz-adv-x="1024" />
<glyph unicode=" "  horiz-adv-x="1024" />
<glyph unicode="&#x09;" horiz-adv-x="1024" />
<glyph unicode="&#xa0;" horiz-adv-x="1024" />
<glyph unicode="!" horiz-adv-x="1916" d="M102 74q0 61 45 137l635 1094q74 127 178.5 127t178.5 -127l633 -1094h2q45 -72 45 -137q0 -41 -23 -82q-53 -90 -201 -90h-1271q-145 0 -199 90q-23 41 -23 82zM836 1012l53 -631h153l54 631h-260zM858 207q0 -47 31 -80t78 -33l-2 -2q47 0 77 33q31 35 31 80 q0 47 -30.5 77.5t-77.5 30.5q-45 0 -76 -30.5t-31 -75.5z" />
<glyph unicode="&#x22;" horiz-adv-x="1771" d="M106 49v529v14l3 2q2 121 16 233q12 98 53 207q39 104 108.5 176t184.5 121q119 51 277 60v-322q-137 0 -195 -94q-59 -96 -59 -301l-9 -2h172q37 0 64 -27t27 -67v-529q0 -37 -27 -63.5t-64 -26.5h-460q-37 0 -64 26.5t-27 63.5zM1010 53v529q0 10 2 12l4 4 q0 139 14 233q16 102 55 207t109 176.5t184 120.5q119 51 277 60v-322q-139 0 -197 -94q-59 -96 -59 -301l-8 -2h172q37 0 63.5 -26.5t26.5 -67.5v-529q0 -37 -27 -63.5t-63 -26.5h-459q-41 0 -67.5 26.5t-26.5 63.5z" />
<glyph unicode="#" horiz-adv-x="1531" d="M82 967v6q0 2 4 14l64 94q18 29 55 29h153v135q0 41 25 62l98 100q25 25 62 25h442q37 0 62 -25l106 -107q27 -27 27 -61v-129h145q37 0 55 -29l64 -94q6 -8 6 -16q0 -12 -23 -13h-98v-1161q0 -14 -10 -24.5t-25 -10.5h-1050q-14 0 -24.5 10.5t-10.5 24.5v1161h-107 q-14 1 -20 9zM358 -53q0 -14 10.5 -24.5t24.5 -10.5h752q14 0 24.5 10t10.5 25v975v2q0 35 -33 37h-572h-182q-16 0 -24 -13q-10 -14 -11 -26v-975zM457 47v776q0 16 12 25q14 10 27 10h43q12 0 26 -10q12 -8 13 -25v-776q0 -14 -13 -24q-14 -10 -26 -11h-43q-12 0 -27 11 q-12 10 -12 24zM508 1110h520v8v58q0 41 -24 61l-19 20q-25 25 -61 25h-318q-37 0 -61 -25l-13 -12q-25 -25 -24 -61v-66v-8zM707 47v776q0 16 12 25q14 10 26 10h43q14 0 24.5 -10t10.5 -25v-776q0 -14 -10 -24.5t-25 -10.5h-43q-12 0 -26 11q-12 10 -12 24zM958 47v776 q0 14 10.5 24.5t24.5 10.5h45q14 0 24.5 -10t10.5 -25v-776q0 -14 -10 -24.5t-25 -10.5h-45q-14 0 -24.5 10.5t-10.5 24.5z" />
<glyph unicode="$" horiz-adv-x="1828" d="M45 1112q0 29 20.5 49.5t49.5 20.5h360q51 0 68 -54l37 -149h1030l10 31q12 49 66 49q16 0 20 -2q51 -14 51 -68q0 -2 -4 -18l-180 -600q-14 -51 -68 -52h-854q-23 0 -43 16.5t-22 37.5l-166 669h-305q-29 0 -49.5 20.5t-20.5 49.5zM614 840l93 -381h747l4 14l111 367 h-955zM676 102.5q0 57.5 43 98.5q45 41 100 41t101 -41q43 -41 43 -98.5t-43 -98.5q-45 -41 -100.5 -41t-100.5 41q-43 41 -43 98.5zM776 719h254v-139h-221zM1151 580l2 139h248l-37 -139h-213zM1210 102.5q0 57.5 41 98.5t98.5 41t98.5 -41t41 -98.5t-41 -98.5t-98.5 -41 t-98.5 41t-41 98.5z" />
<glyph unicode="%" horiz-adv-x="1849" d="M66 410v311q0 43 30 67q25 25 62 25h8l88 -8q70 174 221 289l-4 225v2v2q0 57 51 88q20 14 53 14q29 0 50 -14l262 -147q51 6 104 6q328 0 553 -203q231 -207 232 -500l-4 2q0 -164 -76 -307q-78 -143 -209 -239l22 -197v-8q0 -33 -22 -62q-29 -31 -70 -30h-303 q-41 0 -70 30q-23 29 -22 62v10l4 37q-8 -2 -37 -2h-20l4 -35v-10q0 -33 -23 -62q-25 -31 -69 -30h-303q-41 0 -70 30q-23 29 -23 62v10l23 184q-176 123 -252 314l-90 -9h-8q-37 0 -62 25q-30 25 -30 68zM176 436l154 17l14 -45q68 -199 254 -318l31 -18l-27 -230h252 l-18 152l71 -8q37 -4 80 -4q49 0 96 6l74 8l-18 -154h252l-31 238l31 18h-2q125 82 196.5 207t71.5 264q0 242 -193 414q-195 174 -477 174q-66 0 -108 -8l-19 -2l-278 158l4 -267l-25 -16q-162 -117 -217 -295l-14 -45l-154 14v-260zM412 672q0 16 2 24q8 45 47 86h2 q41 41 86 54q20 4 29 4q27 0 40 -15q16 -16 17 -43q0 -8 -4 -24q-8 -45 -49 -86t-86 -54q-20 -4 -27 -4q-27 0 -41 15q-16 16 -16 43zM958 1012q4 27 21 41q20 16 41 16l8 -8q8 0 37 -4q8 0 53 -10q33 -6 66 -19q23 -8 71 -29q29 -12 76 -41q43 -27 74 -57q16 -16 16 -39 q0 -25 -16 -41q-16 -18 -41 -18q-20 0 -37 16q-51 47 -121 78q-76 33 -112 41q-43 8 -74 12h-8q-23 4 -37 21q-17 21 -17 41z" />
<glyph unicode="&#x26;" horiz-adv-x="1499" d="M35 424v405h512v512h405v-512h512v-405h-512v-512h-405v512h-512z" />
<glyph unicode="'" horiz-adv-x="1859" d="M29 801l2 2q246 244 573 332q162 43 326 43t325 -43q326 -90 572 -332h2q0 -4 4 -4l-115 -115l-4 4q-211 213 -497 289q-141 39 -289 39t-285 -39q-287 -76 -498 -289q-2 0 -2 -2zM285 541q174 176 411 239q117 31 234 31t233 -31q231 -63 408 -239l2 -2l-115 -115 q0 2 -2 2q-217 217 -528 217l-4 2q-307 0 -525 -217zM541 285q160 160 387 159.5t387 -159.5q2 0 2 -2l-113 -113q-2 0 -2 2q-113 113 -272.5 113t-272.5 -113l-114 113h-2zM803 27q51 51 129 51t129 -51l-129 -129z" />
<glyph unicode="(" horiz-adv-x="1374" d="M90 -160v895h154v262q0 178 127 305.5t305 127.5h8h8q180 0 307 -127t127 -306v-262h156v-895h-1192zM461 735h448l2 262q0 90 -63.5 153.5t-153.5 63.5h-6h-10q-90 0 -153.5 -63.5t-63.5 -153.5v-262zM551 4h270l-65 289q66 41 65 117q0 59 -39 98t-98 39q-55 0 -94 -39 t-39 -98q0 -78 67 -115z" />
<glyph unicode=")" horiz-adv-x="1820" d="M51 -164v897h821v262q0 180 127 307.5t308 127.5h6h8v-3q182 0 307 -124q127 -127 127 -308v-262h-217v60l74 69v27h-74v106q0 90 -63 152q-66 61 -154 61h-4h-10q-90 0 -153.5 -61.5t-63.5 -151.5v-262h157v-897h-1196zM510 -2h272l-69 289q68 41 67 116q0 59 -39 99 q-41 41 -94 41q-59 0 -98 -39t-39 -98q0 -78 68 -117z" />
<glyph unicode="*" horiz-adv-x="1591" d="M80 203l399 401l-399 400l315 315l400 -399l399 399l315 -315l-399 -400l399 -401l-315 -314l-399 400l-400 -400z" />
<glyph unicode="+" d="M82 577.5q0 356.5 252 608.5t608 252t608 -252t252 -608.5t-252 -608.5t-608 -252t-608 252t-252 608.5zM418 528q0 -31 22.5 -53t55.5 -22h245q33 0 54 -21q23 -23 22 -51v-248q0 -29 23 -51q20 -20 53 -21h84q31 0 53.5 22.5t22.5 53.5v248q0 31 22.5 53.5t52.5 22.5 h248q31 0 53.5 22.5t22.5 53.5l-14 67q0 33 -21 53q-23 23 -51 23h-248q-29 0 -51 22q-20 20 -20 54v248q0 31 -23 53t-53 22h-84q-31 0 -51.5 -20.5t-20.5 -50.5v-248q0 -31 -22.5 -53.5t-53.5 -22.5h-245q-35 0 -55.5 -20.5t-20.5 -51.5v-84z" />
<glyph unicode="," horiz-adv-x="1873" d="M82 578q0 354 252 606t604 252t602 -252q250 -254 250 -604q0 -215 -94 -392q-119 -238 -350 -362q-195 -104 -408 -105q-207 0 -397 99q-231 121 -359 354q-100 189 -100 404zM295 573q0 -78 24 -174q2 -6 19 -51q43 12 92 12q133 0 227 -94q96 -96 97 -227 q0 -29 -11 -74q10 -2 25 -6q90 -23 170 -22q92 0 178 24q2 0 10.5 4t10.5 4q-10 51 -11 82q0 131 96.5 227.5t227.5 96.5q47 0 90 -13q2 10 8 28t8 26v-6q23 86 23 163q0 266 -188.5 455t-452.5 189q-266 0 -454.5 -189t-188.5 -455zM395 610v78h195v-78h-195zM502 944 l57 55l137 -137l-55 -57zM700 1094l43 18l277 -436l2 2q51 -39 51 -105q0 -25 -10 -49q-35 -80 -119 -80q-18 0 -49 11q-80 33 -80 118v9v10zM901 958v195h80v-195h-80zM1157 862l139 137l56 -55l-140 -139zM1290 610v78h197v-78h-197z" />
<glyph unicode="-" horiz-adv-x="1886" d="M82 569.5q0 356.5 252 608.5t610 252q356 0 608 -252t252 -608.5t-252 -608.5t-608 -252q-358 0 -610 252t-252 608.5zM459 526q0 -39 28 -67q27 -27 68 -27h770q39 0 67.5 28.5t28.5 67.5v78q0 39 -28.5 67.5t-67.5 28.5h-770q-39 0 -67.5 -28.5t-28.5 -67.5v-80z" />
<glyph unicode="." horiz-adv-x="1935" d="M113 614.5q0 77.5 55 133t133 55.5v-2q76 0 131 -55.5t55 -131.5q0 -78 -55 -133t-131 -55q-78 0 -133 55.5t-55 133zM778 614q0 76 55.5 131.5t133.5 55.5h-2q78 0 133 -55.5t55 -131.5q0 -78 -55.5 -133t-132.5 -55q-76 0 -131.5 55t-55.5 133zM1444 614q0 76 55 131.5 t133 55.5t133.5 -55.5t55.5 -131.5q0 -78 -55.5 -133t-133.5 -55t-133 55t-55 133z" />
<glyph unicode="/" horiz-adv-x="1867" d="M82 223v617v260h371v334h966v-334h371v-260v-617h-371v-108l-278 -279h-688v387h-371zM319 342h134v227v37h110v-112v-547h465v278h281v269v112h110v-264h137v403h-1237v-403zM563 1100h746v223h-746v-223zM1456 874h215v109h-215v-109z" />
<glyph unicode="0" horiz-adv-x="1820" d="M51 618l258 259l260 -259h-104h-57q0 -205 147 -350q150 -145 354 -145q123 0 231.5 55t176.5 152l76 -80l57 -55q-94 -121 -238 -193q-139 -70 -305 -70q-283 0 -487 201q-201 199 -205 485h-22h-5h-137zM362 1044q94 125 237.5 197t307.5 72q285 0 487.5 -203 t202.5 -487v-5h58l110 -4l-260 -258l-258 258h103h61v4q0 207 -147.5 354.5t-352.5 147.5q-127 0 -233 -57q-109 -59 -178 -156l-80 80z" />
<glyph unicode="1" horiz-adv-x="1521" d="M55 422q0 291 207 497.5t498 206.5q39 0 51 -2v162v146l100 -103l322 -321l43 -43l-43 -41l-322 -322l-100 -102v143v180q-49 4 -51 4q-170 0 -289 -118.5t-119 -288.5q0 -168 121 -289q119 -119 289 -119t288.5 119t118.5 289v61h62h178h53v-61q0 -293 -204.5 -498 t-497.5 -205q-291 0 -498 207t-207 498z" />
<glyph unicode="2" horiz-adv-x="1882" d="M82 575.5q0 356.5 252 608.5t606 252q356 0 608 -252t252 -608.5t-252 -608.5t-608 -252q-354 0 -606 252t-252 608.5zM387 514q0 -18 12 -31l285 -286q31 -31 76 -31h53q39 0 74 31l604 606h-2q12 12 12 30.5t-12 32.5l-113 111q-12 12 -30.5 12t-32.5 -12l-498 -500 q-16 -16 -30.5 -16t-30.5 16l-181 180q-16 16 -30.5 16.5t-30.5 -16.5l-113 -110q-12 -15 -12 -33z" />
<glyph unicode="3" horiz-adv-x="1777" d="M18 540.5q0 28.5 21 49.5l170 170q20 20 49 20t49 -20l279 -277q20 -20 49 -20t49 20l760 762q20 20 49 20.5t49 -20.5l170 -168q20 -20 20.5 -49t-20.5 -49l-921 -924q-49 -49 -117 -49h-80q-66 0 -115 49l-434 434l-6 3q-21 20 -21 48.5z" />
<glyph unicode="4" horiz-adv-x="1560" d="M121 -2v1436l1438 -719z" />
<glyph unicode="5" horiz-adv-x="1671" d="M121 2v1430h536v-1430h-536zM1014 2v1430h536v-1430h-536z" />
<glyph unicode="6" horiz-adv-x="1673" d="M121 4v1430h1431v-1430h-1431z" />
<glyph unicode="7" horiz-adv-x="1888" d="M121 233v994l745 -373v373l994 -498l-994 -496v371z" />
<glyph unicode="8" horiz-adv-x="1888" d="M29 729l995 496v-373l743 373v-994l-743 373v-373z" />
<glyph unicode="9" d="M82 573.5q0 356.5 252 608.5t608 252t608 -252t252 -608.5t-252 -608.5t-608 -252t-608 252t-252 608.5zM610 131l883 442l-883 443v-885z" />
<glyph unicode=":" horiz-adv-x="1640" d="M53 -8l215 209q-2 10 -2 49v426q0 180 104.5 325.5t266.5 202.5q-8 18 -8 53q0 80 55 135.5t135 55.5t135.5 -55.5t55.5 -135.5q0 -29 -6 -53q164 -59 268 -203q104 -145 104 -321v-426q0 -39 -2 -49l213 -215q0 -33 -24.5 -57.5t-59.5 -24.5h-495q2 -6 2 -25 q0 -80 -55.5 -135t-135.5 -55t-135 55t-55 135v13v12h-494q-33 0 -57.5 24.5t-24.5 59.5zM707 1253q0 -2 4 -30q66 10 104 10q41 0 103 -10q6 14 6 30q0 45 -31 76t-76 31t-75.5 -31t-30.5 -76h-4z" />
<glyph unicode=";" horiz-adv-x="1816" d="M31 821v230h207q119 -2 239 -86q63 -41 135 -109l-82 -90l-24 -25l-25 -28l-22 -23q-37 35 -56 49q-100 82 -165 82h-207zM35 127v229h203q55 0 120 45q55 35 160 140l19 19l53 57l76 81q139 147 219 213q166 131 311 136h180v188l359 -301l-359 -301v184h-180h-2l2 2 q-49 0 -115 -45q-68 -45 -159 -139q-47 -47 -111 -119l-137 -141q-57 -57 -123 -113q-162 -131 -313 -135h-203zM821 319l88 95l66 69q33 -29 55 -43q100 -82 166 -82h6h176v193l359 -303l-359 -299v180h-176q-115 0 -246 82q-51 32 -135 108z" />
<glyph unicode="&#x3c;" horiz-adv-x="808" d="M6 383v457h230l454 456v-1368l-454 455h-230z" />
<glyph unicode="=" horiz-adv-x="1939" d="M123 143v906h1583v-224l129 -49v-360l-129 -51v-222h-1583zM274 295h1282v602h-1282v-602zM373 393v406h391l455 -406h-846z" />
<glyph unicode="&#x3e;" horiz-adv-x="1820" d="M29 379v457h229l455 456v-1368l-455 455h-229zM819 463q72 59 72 147t-72 148v4l70 135q154 -102 153.5 -286.5t-153.5 -284.5zM977 150q121 72 190 192q72 125 72 266.5t-72 265.5q-70 121 -190 193v4l67 133q158 -90 252 -248q96 -162 97 -346v-6q0 -188 -95 -344 q-94 -158 -251 -246zM1133 1368l69 137h-2q242 -135 387 -375q145 -242 146 -526q0 -289 -144 -526q-145 -242 -387 -373l-67 135q203 113 325 318q123 203 123 446.5t-123 446.5q-124 204 -327 317z" />
<glyph unicode="?" horiz-adv-x="1888" d="M84 577.5q0 356.5 252 608.5t608 252q358 0 610 -252t252 -608.5t-251.5 -608.5t-610.5 -252q-356 0 -608 252t-252 608.5zM629 1006l94 -179l20 17q2 4 37 24q10 6 49 21q23 8 50 12q20 4 43 4q63 0 77 -20q23 -23 23 -62q0 -29 -14 -51q-25 -35 -43 -49l-19 -18 l-20 -19q-12 -12 -19 -16q-37 -37 -61 -70q-27 -43 -41 -92q-10 -51 -10 -86v-25v-24l2 -23h22h180v25q0 49 17 86q18 35 43 61q25 25 59 49q33 23 66 62q29 35 49 86l2 -2q20 47 20 127q0 119 -84 190q-76 70 -221 70q-100 0 -174 -25q-68 -23 -129 -61zM768 156 q-4 -55 37 -97q41 -35 98 -34q63 0 98 34q39 37 39 96.5t-39 96.5q-41 35 -98 35t-98 -35q-41 -41 -37 -96z" />
<glyph unicode="@" horiz-adv-x="1040" d="M53 981q0 188 135.5 323.5t323.5 135.5h8h8l-4 -2q188 0 323.5 -135.5t135.5 -321.5q0 -215 -416 -1118l-49 -103l-129 277q-82 178 -207 502q-129 331 -129 442zM305 1022q0 -88 61.5 -149.5t149.5 -61.5q86 0 147.5 61.5t61.5 149.5q0 86 -61.5 147.5t-147.5 61.5 q-88 0 -149.5 -61.5t-61.5 -147.5z" />
<glyph unicode="A" horiz-adv-x="1828" d="M53 968.5q0 108.5 78 186.5l203 203q78 78 188.5 78t188.5 -78l295 -295q78 -78 77 -184q0 -100 -63 -172l-143 141q8 14 8 31q0 27 -21 47l-295 295q-18 18 -44.5 18t-45.5 -18l-203 -203q-20 -20 -20 -49t20 -49l295 -295q20 -20 43 -21q16 0 31 8l139 -141 q-74 -61 -170 -61h-12q-102 4 -176 77l-295 295q-78 78 -78 186.5zM500 883q0 43 28 71v-6q29 29 68 29t68 -29l604 -604q29 -29 28.5 -67.5t-29 -67.5t-67.5 -29t-67 29l-605 602q-28 29 -28 72zM741 272v11q0 96 62 170l141 -144q-6 -14 -6 -30q0 -25 20 -46l295 -294 q18 -20 47 -20.5t48 20.5l202 202q20 18 20.5 47t-20.5 48l-295 296q-18 18 -43 19q-16 0 -32 -8l-142 143q72 63 172 64q4 0 7 -2q106 -4 178 -76l295 -295q76 -76 75 -189q0 -111 -75 -186l-203 -203h-6q-76 -76 -184.5 -75.5t-184.5 75.5l-297 297q-70 70 -74 176z" />
<glyph unicode="B" horiz-adv-x="1804" d="M39 559q8 -6 29 -12q29 -10 77 -23q59 -16 117 -24q41 -4 70 -4q20 0 74 4q80 6 159 35q-133 55 -196 186q-27 53 -27 84q0 16 10 26q14 14 51 -18q92 -86 340 -86q61 0 95 2q12 12 43 53v11q0 137 96 233t233 96q133 0 228 -88q96 -90 104 -217l209 -100l-248 -80l-4 -8 q-29 -57 -86 -103q-25 -63 -63 -118q-39 -59 -111 -123q-70 -63 -188 -105q-115 -39 -265 -39q-158 0 -293 43t-214 105q-76 59 -138 123q-59 61 -80 104zM1182 856q0 -41 26.5 -67.5t67.5 -26.5t67 26q29 29 29 68q0 41 -26 68q-29 29 -68 28l-2 -2q-41 0 -67.5 -26.5 t-26.5 -67.5z" />
<glyph unicode="C" horiz-adv-x="1869" d="M72 342q0 90 47 172q45 78 123 125q-12 33 -13 74q0 96 70 165.5t166 69.5q80 0 145 -51q63 131 186.5 211t272.5 80q213 0 362.5 -147.5t149.5 -360.5q0 -25 -2 -31l-8 -8q96 -37 153 -123q57 -84 58 -190q0 -139 -98.5 -237.5t-237.5 -98.5h-10h-9h-1011h-2h-4 q-141 4 -239.5 104.5t-98.5 245.5z" />
<glyph unicode="D" horiz-adv-x="1878" d="M82 571.5q0 354.5 252 606.5t606 252h-2q354 0 606 -252t252 -606.5t-252 -606.5t-604 -252q-354 0 -606 252t-252 606.5zM463 236q0 -33 22 -56l64 -63q23 -23 55.5 -23t54.5 23l224 223q23 23 55.5 22.5t58.5 -22.5l222 -223q23 -23 55.5 -23t58.5 23l64 63 q23 23 22.5 55.5t-22.5 59.5l-223 221l-5 -4q-23 27 -22.5 57.5t22.5 57.5l224 221q23 27 22.5 59.5t-22.5 55.5l-64 63q-27 23 -57 23q-33 0 -55 -23l-222 -223q-27 -23 -57 -23q-33 0 -55 23l-224 223q-23 23 -55.5 23t-54.5 -23l-64 -63q-23 -23 -22 -56q0 -31 22 -57 l224 -221q23 -27 22.5 -57.5t-22.5 -57.5l-224 -221q-22 -26 -22 -57z" />
<glyph unicode="E" horiz-adv-x="1832" d="M61 606v19l45 51q25 27 121 110q90 78 189 142q96 61 233 110t269 49l-7 -2q129 0 265 -49q137 -49 237 -116q102 -68 184 -136q86 -70 127 -116l43 -47v-17l-45 -51q-25 -27 -120 -111q-90 -78 -189 -141q-94 -61 -233.5 -110.5t-266.5 -49.5q-129 0 -264 49 q-133 49 -235.5 117t-184.5 135q-74 61 -125 115zM623 606q0 -119 84 -203q82 -82 200 -81l-6 -7q119 0 203 84t84 203t-82 201q-84 84 -203 84q-117 0 -198.5 -82t-81.5 -199zM774 600q0 51 37 92q37 39 90 39t92 -39t39 -92t-39 -90t-92 -37t-90 37t-37 90z" />
<glyph unicode="F" horiz-adv-x="1441" d="M109 -242v1323l350 351v2h864v-1676h-1214zM248 -102h936v1396h-584v-352h-352v-1044z" />
<glyph unicode="G" d="M82 569.5q0 356.5 252 608.5t608 252t608 -252t252 -608.5t-252 -608.5t-608 -252t-608 252t-252 608.5zM258 569q0 -287 203 -489.5t489 -202.5q170 0 314 76q145 78 239 205q-16 -2 -18 18q-2 8 -2 25q0 23 6 41q10 -4 12 0q-10 4 -6 12q20 -14 21 4l-5 4q0 4 2 6l5 2 v-4q6 0 6 10q0 8 4 13q0 -23 6 -25q2 -2 -2 -8q-6 -6 -6 -8q-4 -4 -4 -12h-6q0 -10 -2.5 -18.5t-2.5 -14.5q-4 0 -4 -33l-41 -23q129 184 129 404q0 45 -2 57q-14 0 -26 4q-6 0 -31 11q-20 8 -33 6q0 2 -2 2q4 6 -12 22q-10 10 -12 0q-2 -6 12 -20l4 -12q2 -2 0 -7 q-2 -2 -2 -6q10 0 12 15q0 -2 2 -2q-4 -6 2 -13v-10q23 0 31 21q2 0 2 -4.5t2 -6.5q6 -6 4 -10q-4 -4 4 -4q4 -4 4 0v4q8 -2 8.5 -12t-8.5 -13q0 -4 -2 -6t-2 -6q0 -14 -8 -16l-8 -4l-18 -13q-8 -6 -9 -8q-25 0 -30 -14q-16 0 -25 -8q-12 0 -18.5 12t-8.5 12l-4 11q4 0 0 12 l-12 26q-6 14 -6 19l-10 20q-4 4 -13 25q-16 10 -18 27q20 0 20 8q-4 0 -6 2q-4 4 2 4l6 18q0 6 2.5 12.5t2.5 12.5l-17 -4q0 -2 -2 -2h-6l-6 2q0 2 -12 0q-12 -4 -17 4q-2 2 -6 29q-4 6 -18 6q-6 4 -7 0q0 -6 2 -11l3 -8q2 0 -7 -14q-2 -2 -2 -6q-8 2 -12 12t-6 12 q-2 8 -6 9q0 20 -2 20l-6 2l-13 6q-4 0 -10 6q-8 8 -12 11q-6 2 -8 0l6 -13q4 0 10 -8t14 -6v-10q8 4 10.5 -2t6.5 -6q0 -2 -6 0q-6 0 -7 -2q4 -12 -8 -19q0 25 -6 25q-4 8 -12 10q-10 4 -13 6q-2 0 -8 6l-6 6l-2 4q-4 -4 -10 -4q-4 -4 -8 -4q-8 0 -15 2l-6 2 q-16 -39 -18 -41q-4 -8 -6 -10t-7 -10q0 -2 -14 -2t-14 -2q-23 10 -23 26v11q0 12 2 18t2 12l4 -4h7h10q4 0 6 2q4 4 4 6q8 0 6 -8q18 -6 19 6q-4 0 -4 5q6 10 4 14q-4 8 -9 12q-6 6 -6 8l-8 9q18 -12 23 -3q0 4 -2 7v2q4 -4 6 -4t6 4l6 6v12q6 -10 10 0l6 12q0 -6 7 0 q4 4 6 4q4 4 12 5q10 0 12 6q-6 2 -6 24q2 0 10 4l9 4q2 0 6 -4q0 -12 2 -12q8 2 8 10q-4 0 -10 21q-6 0 -11 -4q-8 0 -14 2t-12 2l-11 11q-3 3 -1 3q-4 10 6 12h4q0 4 24 11q23 6 27 16q-10 0 16 27q23 16 31 16l2 2q4 0 8 1t9 1l30 8q12 4 17 0q45 0 45 -4q4 0 8 -2t8 -2 t6 2q6 4 22.5 -6t16.5 -18q-12 0 -24.5 -2t-28.5 -2v-5q4 0 10 -8q6 -10 4 -12q4 0 12 4l9 4q0 -4 2 -6q6 -2 8 6l-2 8q4 4 10 4t10 7q-94 113 -233 178q-141 66 -295 65q-274 0 -473 -186q2 -2 12 4l4 2q0 -14 2 -16l6 -15q14 0 19 -4h-10q2 -6 0 -8t-6.5 0t-8.5 2 q0 4 -6 6q-6 4 -10 0q-4 -2 0 -12q4 0 6 -2l6 -6q6 0 13 -2l12 -6h10h8l6 6q4 4 0 6q4 2 -6 6q0 2 23 2q4 4 4 6q0 4 2 6q4 4 8 4q6 0 8 7q10 -4 13 -13q2 0 6 -6q18 -23 18 -6q12 -4 12 -25q14 2 15 25q-2 0 -2 6h8q4 -4 4 0q2 0 2 -4h16v-22q0 -2 -4 -7q-2 -2 -6 -2l-4 -2 q-6 -8 -2 -12l12 -8l13 -8l-17 2h-8h-12q-6 0 -8 2q8 0 12 22q-16 4 -23 -12q-2 -8 -8 -8t-8 -2l-4 -2q-4 -2 -10 -2q-4 0 -4 2q-14 -2 -15 -35q23 -16 23 -25q12 -4 20 -6t19 -2q2 -6 8 -6q0 -8 18 -8q0 12 13 -8q2 -2 2 -7q-2 0 0 -6l6 -12q-2 0 0 -2q4 -4 10 0q6 2 6 6 q-4 0 -4 12q-12 12 2 17q0 -8 12 0q4 4 -2 6q4 18 0 24q-2 2 -6 3q-2 0 -6 4q8 2 2 30h10q6 0 10.5 -2t10.5 -2q4 0 6 6q6 -4 10 -10q4 -8 10 2q0 -4 8.5 -12t12.5 -8q0 -6 4 -6l-2 -5q14 0 14 3q12 0 13 16q2 0 6 -6l4 -13q4 -6 6 -6l6 -6l4 -4l6 -6q2 -2 2 -6q4 -4 4 -10 q2 0 7 4q6 6 6 -2q4 0 10 -6.5t6 -8.5q-2 0 -2 -4t-2 -4q0 -2 -22 -2q-2 -10 -13 -12q-10 -4 -22.5 0t-22.5 0q-6 -2 -20 -17q-12 -12 -13 -20q6 0 17 6q6 4 12 10q4 0 19 8q0 -2 2 -2v-2q-12 0 -5 -14q2 -2 3 -6q6 -10 16 -10q0 -2 -6 -2t-6 -5l-11 -6h-12l2 2l2 2h6v9 q-8 0 -12 -2t-10 -2q-8 -8 -12 -9q-2 -20 -13 -24l-4 -2l-8 -4l-4 -4l-4 -5q-2 -2 -6 -10q-6 -16 -7 -18q-2 0 -8 -12.5t-14 -12.5l-12 -12q-8 -8 -9 -21q4 -4 4.5 -8t4.5 -12q2 -4 2 -8q0 -16 -9 -17l-4 7q-2 6 0 6q0 10 -8 24q0 4 -8 4h-12q-2 6 -27 6q0 -4 2 -6t2 -6 q-4 0 -10 -2q-2 -2 -4 -2t-8 6t-13 4q-29 -4 -28 -30q-2 0 -2 -18.5t2 -18.5l4 -13l4 -12q4 0 12 -8t12 -8q2 -8 13 -8l4 2l4 8q-4 2 -2 8q2 4 6 8q0 -2 12 6l13 4l4 5q2 -6 0 -9q-2 0 -6 -6l-2 -4q-2 -2 -7 -10q-2 -4 -2 -10q0 -4 2 -9q2 -6 0 -8h27v6q6 0 6 -12t4 -12 q0 -6 2 -12.5t2 -12.5q10 -6 6 -16q25 0 25 6q14 0 12 -14q10 0 13 6q2 4 2 12q0 6 4 6q0 6 4 2l12 6l6 5q4 -4 4 -7q10 0 19 9q2 0 6 -10.5t12 -10.5q25 0 27 2q6 -4 6 -6q4 0 6 -2l2 -2h2l8 -8q0 -2 6.5 -6.5t6.5 -6.5l2 -2l6 -4l18 -6q2 6 9 0q2 -2 6 -2l4 -4q2 -2 8 -14 q2 -2 6 -23q-2 0 -2 -16l8 -2q4 0 4 4q2 0 11 -4l8 -4q-4 -4 2 -7q6 -4 6 7q6 0 6 -23q2 0 10.5 4t10.5 4q12 0 12 2q14 -2 25 -16q10 -10 10 -29q0 -20 -8 -28l-17 -21q0 -25 -2 -24q0 -29 -6 -29q0 -6 -6 -14l-8 -13q-2 -2 -15 -8q-8 -4 -14 -10q-4 0 -8 -2t-8 -2l-4 -6 q-6 -6 -5 -7v-14q0 -14 -2 -16q-10 -4 -6 -6q-2 0 -2 -2.5t-6 -2.5q-4 0 -10 -6t-6 -12q-4 -16 -13 -23l-6 -4q-8 -2 -8 -6v-16q-14 0 -16 -8q-10 0 -25 -9q0 -8 -4 -8q0 -8 -6 -6t-8 0q4 0 4 -12q0 -2 -13 -19l-2 -4q-2 -6 -6 -6v-8v-10v-6l4 4q0 4 4 0l-6 -6q-2 -2 -6 -11 q-10 0 -10 -16q0 -4 2 -4l4 -12l-55 18q0 76 8 76q0 18 4 18v29q-2 2 4 12q6 8 6 12q6 4 6 21v35q0 16 5 16q0 2 1 8t2 16.5t1 18.5q2 33 0 43l-15 17q-8 0 -18 12q-8 10 -8 24q-6 18 -6 21q2 0 -5 10l-12 19l-8 10q-6 6 -6 10q0 2 4 10t4 13q-10 4 -6 22.5t10 18.5q0 4 6 8 q4 -6 6 -4q6 6 0 10v26q0 20 -10 21q-2 0 -6 -10q-4 4 -12 4q-6 0 -15 4q-6 2 -6 10q4 12 -18 23q2 8 -10 18q-14 10 -21 10q0 4 -4 4t-4 5q-4 0 -10.5 6t-12.5 6q-8 0 -20 6t-19 6q-4 4 -14 6t-14 6q-14 0 -15 27q0 37 -18 37q0 6 -8 12q-10 6 -12 6q-6 14 -11 15 q0 8 -12 18q-6 2 -6 0q-2 -2 4 -10q6 -6 6 -10q4 0 19 -27q12 -20 6 -25q-8 -2 -21 17l-4 12q-2 2 -8 14.5t-6 16.5q-4 4 -6 8l-7 12l-2 4q0 20 -22 21l-14 18q0 20 -17 27q0 8 -2 18q-2 14 0 21q0 47 -20 61q-68 -139 -68 -295zM565 586q-2 0 -2 1.5t2 4.5q4 0 6 -2l-4 2 q0 -6 6 0q0 -8 -8 -6zM586 590q10 0 14 4l-2 2q12 -4 16 -8q6 -6 11 -6q6 -6 6 -9q0 -4 -2 -6q-14 -2 -25 13q-8 0 -18 10zM598 555q8 0 8 -6q-8 0 -6 6h-2zM608 549l4 6q2 0 2 -4q-2 -2 -6 -2zM633 557h14l-4 8q6 0 12 -2t13 -2v6v-4l6 -6l2 -2h-27q-2 -2 -8 -2q-4 0 -8 4z M651 496q2 2 2 6l2 -2q0 -2 -4 -2v-2zM684 553v4l4 -4h-2h-2zM690 555v2q6 0 6 -2q-8 2 -6 0zM752 801q4 4 8 6q0 -6 -8 -6zM948 973q0 4 2 6q6 8 -2 8q14 6 19 6v-2v-8q0 -2 4 -2h10q4 0 8 4q8 0 12 2l5 2v-6l12 4l-8 -2q0 -10 -2 -10q-8 -6 -19 -6h-22l-4 2q-2 0 -6.5 1 t-8.5 1zM973 557q0 2 4 6t4 6q0 23 8 37l4 8l4 9q2 6 6 6l7 6q6 6 10 12q2 4 6 8q6 2 0 9q8 0 8 20q2 6 12 6l3 2q10 10 12 10q4 6 12 7q2 -2 6 -2q6 0 11 2l6 2q8 14 28 14q4 4 9 4h2q6 -2 22 -6q8 -2 16 -2v4q6 -2 15 -20q8 -16 8 -25h16q0 -8 21 -8q33 0 33 12 q12 0 12 -12h12h19q8 0 16 -4q6 -4 4 -6q2 0 6 -6.5t6 -6.5q0 -6 6.5 -18t10.5 -12q0 -16 10 -23q12 -27 25 -37q-2 -2 4 -12t6 -12q2 -10 6 -15q0 -8 10 -24q8 -14 17 -15q0 -4 -2 -6t4 -6l-15 6q12 0 13 2q20 0 32 6q0 -8 -6 -20q-6 -10 -2 -21q-6 0 -6 -10l-4 -4 q-2 -4 -6 -8q0 -4 -19 -23l-12 -12l-12 -12q-29 -29 -19 -29q0 -49 4 -49l3 -12q2 -8 2 -21q0 -10 -2 -12q0 -2 -5 -14l-4 -13l-4 -2l-6 -6q-2 0 -6 -6t-6 -6q0 -14 -2 -24.5t-2 -24.5l-2 -9l-4 -12l-2 -8q-31 -14 -31 -35q-16 -20 -19 -24q-39 0 -39 -9h-30q0 6 -2 12.5 t-2 14.5q-2 0 -6.5 6t-6.5 6q0 2 -6 15q-4 8 -8 24q-4 12 0 12q0 18 -6 19q0 10 -6 24.5t-6 20.5q-4 0 -7 8q-2 6 -2 17q0 8 2 10q0 12 9 45q4 18 -7 47q-8 0 -8 12q-12 10 -12 31q12 12 6 41q-4 2 -29 2q-2 6 -14 8t-33 0l-20 -2q-2 -2 -8 -2q-4 0 -17 4q-10 4 -10 6 q-4 0 -14 11q-8 8 -8 18q-10 4 -18.5 20.5t-8.5 26.5q-8 10 0 19q0 6 -6 24zM1047 856q-2 2 -2.5 6t2.5 10q-3 2 -3 4t5 3l10 4q-8 0 -6 8h4q4 -2 6 0h8q2 -2 0 -6q-6 -25 -24 -25v-4zM1073 905q0 6 6 6t8 9q6 -2 0 -7v-8q2 0 6.5 4t6.5 4q-2 -16 0 -18q10 -10 6 -12 q16 0 12 -23q6 0 6 6q4 -4 4 -6t-4 -2q-6 -10 -30 -10q0 12 -9 6q-4 -2 -5 0t1 6q2 2 2 6q-2 2 13 6q-4 16 -19 17v4q0 4 -2 6t-2 6zM1077 844q2 0 2 2h6q0 -4 -2 -4q-4 0 -6 2zM1167 741q0 14 4 15l2 -4q2 2 3 6l-3 -2q4 0 5 -8q-1 -11 -11 -7zM1167 772q6 0 6 2h3 q4 0 -3 -12q-2 2 -6 10zM1196 725h10q2 -4 13 0h-3q0 -8 -2 -8l-8 4q-8 4 -10 4zM1321 766q4 -4 4 -8q51 0 51 6l6 -6q2 -2 7 4q4 0 10 -6t16 -4l14 8l-4 2q0 12 -10 18q-6 4 -12 11q-4 0 -8 2t-9 2q-6 4 -12 -2q-6 -2 -6 0q-4 4 -6 4q0 14 -19 12q-4 -8 -8 -14t-8 -15 q-2 -4 -2 -14h-4zM1436 258q0 2 4 6zM1509 807q0 -6 4 -6q0 -2 6.5 -12.5t6.5 -18.5v-22q2 -2 12 -7q2 -8 12 -12q3 -1 6 -1q6 0 7 7q-6 0 -6.5 10.5t-2.5 10.5q0 4 -2 6q-4 4 -4 6h15q0 2 -4 10l-5 8q-4 0 -6 -2l-4 -2v4q0 4 -8 13l-4 14q8 0 12 2q-2 0 2 2q2 2 4 2 q-4 4 -6 8q-3 7 -9 7h-3q-4 0 -10 -6.5t-11 -6.5v-2q-2 -4 -2 -12z" />
<glyph unicode="H" horiz-adv-x="1771" d="M43 571l844 842l842 -842h-324v-774h-363v482h-311v-482h-375v774h-313z" />
<glyph unicode="I" horiz-adv-x="1908" d="M98 -164v643l322 856h1069l321 -856v-643h-1712zM313 479h404l100 -196h266l109 196h405l-215 660l-856 2z" />
<glyph unicode="J" horiz-adv-x="1765" d="M29 53l250 250l-168 168l755 88l-88 -758l-166 168l-250 -250zM324 692l49 103l403 -140zM748 844l57 10v-174zM897 590l88 756l166 -166l250 250l336 -336l-250 -250l168 -168zM965 299v174l57 -166zM993 498l453 -39l-49 -103z" />
<glyph unicode="K" horiz-adv-x="1779" d="M29 891q0 223 159.5 383t383 160t383 -160t159.5 -383q0 -86 -29 -172l654 -651v-344h-344h-2v264h-263v262h-262l-125 125q-86 -29 -172 -29q-223 0 -382.5 160t-159.5 385zM274 1005.5q0 -75.5 56 -128.5q57 -53 131 -54q76 0 129 53.5t53 129t-53 129t-129 53.5 q-74 0 -131 -53q-56 -54 -56 -129.5z" />
<glyph unicode="L" d="M82 575.5q0 356.5 252 608.5t608 252t608 -252t252 -608.5t-252 -608.5t-608 -252t-608 252t-252 608.5zM295 573.5q0 -266.5 190 -454.5q193 -188 457 -188.5t457 188.5q190 188 190 454.5t-190 454.5q-193 188 -457 188.5t-457 -188.5q-190 -188 -190 -454.5zM436 569 q0 211 151.5 362.5t362.5 151.5l-4 -4q213 0 363 -149q152 -152 151 -363q0 -213 -149.5 -362.5t-362.5 -149.5q-211 0 -362 152q-150 149 -150 362zM578 606q0 -14 2 -18l86 -66q76 145 141 209q66 66 209 143l-62 82q-6 2 -24 2q-127 0 -239.5 -112.5t-112.5 -239.5z M1018 397q0 -35 24.5 -59.5t59.5 -24.5q33 0 57.5 24.5t24.5 59.5t-24.5 59.5t-57.5 24.5q-35 0 -59.5 -24.5t-24.5 -59.5z" />
<glyph unicode="M" horiz-adv-x="1949" d="M109 96v953q0 16 6 30l559 -477l-559 -536q-6 16 -6 30zM186 -2l566 543l217 -179l219 179l563 -543q-20 -4 -25 -4h-1515q-5 0 -25 4zM186 1147q29 4 31 4h1512q2 0 30 -4l-563 -481l-74 -62l-147 -119l-152 119l-73 62zM1268 600l559 479q6 -14 6 -30v-953 q0 -14 -6 -30z" />
<glyph unicode="N" horiz-adv-x="1931" d="M109 74v985q0 35 12 47t47 12h188v195q0 35 12.5 47t47.5 12h1339v-2q35 0 47.5 -12t12.5 -47v-1342q0 -35 -12.5 -47t-47.5 -12h-221h-1118h-146q-57 0 -110 55q-51 54 -51 109zM211 72q0 -14 22.5 -37t36.5 -23h146h1118h180v1256h-1257v-152v-102v-912h-101v912h-145 v-942zM590 217v76h977v-76h-977zM590 453v75h977v-75h-977zM590 680v457h457v-457h-457zM1188 764v76h379v-76h-379zM1188 997v76h379v-76h-379z" />
<glyph unicode="O" horiz-adv-x="1904" d="M98 -2v1046h142v-1046h-142zM381 -2v1046h106q137 272 250 273h424q66 0 135 -82q74 -86 127 -191h97v-1046h-1139zM776 1132.5q0 -26.5 18.5 -45t45.5 -18.5h213q27 0 45 18.5t18 45t-18.5 45t-44.5 18.5h-213q-27 0 -45.5 -18.5t-18.5 -45zM1663 -2v1046h143v-1046 h-143z" />
<glyph unicode="P" horiz-adv-x="1861" d="M53 948l1260 486l160 -418h292v-1014h-1349v2zM199 885l217 -568v652zM528 115h1125v788h-1125v-788zM541 1016h811l-105 272zM666 209l211 229l135 -86l252 363l77 -146l91 29l118 -389h-884zM670 670q0 45 30.5 75.5t75.5 30.5t76 -30.5t31 -75.5t-31 -76t-76 -31 t-75.5 31t-30.5 76z" />
<glyph unicode="Q" horiz-adv-x="1728" d="M66 467q0 172 71 332q70 156 197 266q35 33 86 33h8q57 -4 90 -43q33 -33 33 -84q0 -61 -45 -99q-180 -160 -180 -401q0 -223 157.5 -381t380.5 -158t381 158q156 156 160 381q0 240 -180 399q-45 39 -45 99q0 47 34 86q33 39 91 43q2 2 6 2q51 0 84 -33l-4 -8 q125 -111 196 -264q72 -156 72 -328q0 -330 -233.5 -563.5t-563.5 -233.5t-563 233.5t-233 563.5zM735 463v833q0 51 37 93q37 39 90 38.5t92 -39t39 -92.5v-833q0 -53 -39 -92t-92 -39t-90 39t-37 92z" />
<glyph unicode="R" horiz-adv-x="1861" d="M82 0v1071h670q-2 -2 -12.5 -6t-12.5 -6q-178 -80 -289 -203h-141v-641h1071l-2 178l213 144v-537h-1497zM414 422q0 106 41 205q39 94 104 155q66 63 146 109q84 49 159 72q98 31 144 41q66 16 104 18l41 4v258l641 -430l-641 -436v280q-190 0 -289 -14 q-102 -12 -184 -43t-129 -68q-41 -33 -80 -71q-31 -31 -45 -56z" />
<glyph unicode="S" horiz-adv-x="1746" d="M37 750q0 27 16 49q18 18 33 24q27 10 55 11h471q14 0 23 8q14 8 14 18l137 490q8 27 19 43q27 35 67 39q41 -4 68 -39l21 -43l135 -490q0 -10 14 -18q8 -8 23 -8h471q18 0 41 -7q29 -10 47 -30l-4 2q19 -19 18 -44q0 -34 -20 -63q-8 -10 -33 -30l-377 -248 q-6 -6 -10 -15q-6 -12 -4 -20v-8l165 -486q8 -18 9 -47q0 -31 -15 -51q-20 -33 -61 -33h-2q-35 4 -74 31l-389 317q-6 6 -20.5 6.5t-18.5 -6.5l-371 -315q-37 -29 -73 -31h-9q-37 0 -55 31q-16 23 -16 53q0 18 8 43l147 484v8q2 8 -4 22q-6 10 -12 15l-379 250 q-18 14 -33 30q-22 29 -22 58z" />
<glyph unicode="T" horiz-adv-x="1841" d="M94 1303q0 55 39 94t94.5 39t94.5 -39l360 -359l973 246l129 -129l-760 -461l344 -344l305 29l129 -133l-332 -187l-188 -333l-129 131l29 303l-346 346l-459 -760l-129 129l246 973l-361 358q-39 40 -39 97z" />
<glyph unicode="U" horiz-adv-x="1830" d="M59 -66v177v12q0 8 13 31q14 25 32 43q27 29 64 53q37 27 102 57q18 8 111 60q78 45 178 88q88 39 193 57q-68 70 -148 276q-23 61 -22 205q0 31 -2 64q-2 23 -2 61q0 18 2 25q0 37 6 61q66 227 325.5 227.5t325.5 -227.5q8 -23 8 -61q2 -6 2 -19q0 -39 -2 -61l-4 -66 q0 -150 -20 -204q-78 -199 -148 -275q102 -16 195 -55q100 -43 178 -88q92 -51 110 -60l-2 -8q90 -39 150 -90q55 -49 61 -78l7 -28v-177h-1713z" />
<glyph unicode="V" horiz-adv-x="1943" d="M117 178v887q0 41 26.5 67.5t67.5 26.5h1044q41 0 68 -26.5t27 -67.5v-213l481 227v-919l-481 227v2v-211q0 -41 -27 -67.5t-68 -26.5h-1044q-41 0 -67.5 26.5t-26.5 67.5z" />
<glyph unicode="W" horiz-adv-x="1953" d="M119 111v1009q0 104 73.5 178t178.5 74h1007q29 0 49 -4l-182 -184h-874q-27 0 -45.5 -18.5t-18.5 -45.5v-1009q0 -27 18.5 -45.5t45.5 -18.5h1007q27 0 45.5 18.5t18.5 45.5v370l188 191v-561q0 -104 -73.5 -178t-178.5 -74h-1007q-104 0 -178 74t-74 178zM754 244 l129 399l725 725l270 -270l-725 -725zM850 340l270 86l-182 182z" />
<glyph unicode="X" horiz-adv-x="1886" d="M68 242v368l227 252h377v-581q-68 92 -180 92q-68 0 -123.5 -37t-81.5 -94h-219zM207 469h330v270h-203l-127 -151v-119zM342 147q0 63 43 106.5t107 43.5q61 0 104 -43t43 -107q0 -61 -43 -104t-104 -43q-63 0 -106.5 43t-43.5 104zM782 244v866h996v-868h-136 q-29 61 -81 96q-55 37 -123 37t-123 -37t-82 -94h-451zM1290 147q0 63 43 106.5t105 43.5q63 0 106 -43t43 -107q0 -61 -43 -104t-106 -43q-61 0 -104.5 43t-43.5 104z" />
<glyph unicode="Y" horiz-adv-x="1763" d="M10 440l332 310l197 -301l350 989l321 -1239l269 845l237 -759l-125 -33l-112 364l-281 -882l-328 1265l-297 -837l-258 395l-165 -156l-46 -41z" />
<glyph unicode="Z" horiz-adv-x="1837" d="M72 487q0 311 221 533q219 221 530 223v-756h760q0 -313 -221 -534t-534.5 -221t-534.5 221t-221 534zM1014 676v758h2l2 -2q313 0 534.5 -221.5t221.5 -534.5h-760z" />
<glyph unicode="[" horiz-adv-x="1763" d="M37 616l874 758v-569h838v-379h-838v-567z" />
<glyph unicode="\" horiz-adv-x="1748" d="M109 -332v1514h182v94q0 70 41 110q39 39 114.5 39t116.5 -39q43 -39 43 -110v-94h107v94q0 72 43 110q45 41 116 41q76 0 115 -38q41 -41 41 -111v-94h107v94q0 70 43 111q45 41 116 41q76 0 117 -39q43 -39 43 -111v-94l170 -4v-1514h-1515zM236 -211h1261v1053h-1261 v-1053zM375 1020q0 -66 71 -66q37 0 58 17q18 16 18 49v252q0 35 -18 49q-20 16 -58 16q-72 0 -71 -65v-252zM465 31l14 106q74 -29 148 -28q49 0 77.5 22.5t28.5 54.5q0 47 -32.5 67.5t-122.5 25.5v106q129 8 129 78q0 57 -86 57q-59 0 -123 -31l-15 107q70 31 172 31 q94 0 146 -37q53 -37 53 -94q0 -100 -133 -148v-2q150 -39 149 -151v2q0 -90 -71 -144q-70 -51 -185 -51q-69 0 -149 29zM795 1020q0 -33 18 -49q16 -14 57 -15q72 0 72 66v252q0 66 -72 65q-41 0 -57 -14q-18 -14 -18 -49v-256zM971 528l186 90h64v-606h-129v451l-107 -41z M1217 1024q0 -66 71 -66q37 0 58 17q18 16 18 49v252q0 35 -18 49q-20 16 -58 16q-72 0 -71 -65v-252z" />
<glyph unicode="]" horiz-adv-x="1763" d="M14 426v379h836v569l876 -758l-876 -757v567h-836z" />
<glyph unicode="^" horiz-adv-x="1587" d="M125 -326v1674q0 35 24.5 59.5t61.5 24.5q35 0 59.5 -25t24.5 -59l4 -1674h-174zM397 440v817l119 31q51 12 229 51q141 31 242 31h17q104 -2 104 -49q0 -2 -1 -6t-2 -11.5t-1 -13.5l-6 -49q-2 -16 -2 -49q0 -23 10 -37q10 -12 31 -10q49 8 159 14l170 8l68 4h-2 q20 -43 20 -106q0 -74 -26.5 -166t-26.5 -233q0 -100 17 -244q-16 -4 -43 -6q-6 0 -101 -17q-82 -14 -135 -16q-82 -4 -125 -4q-63 0 -94 18.5t-21 53.5q6 18 7 34q0 59 -95 60h-10q-125 -4 -375 -99q-45 -16 -78 -16q-24 0 -49 10z" />
<glyph unicode="_" horiz-adv-x="1679" d="M121 406v407h1438v-407h-1438z" />
<glyph unicode="`" horiz-adv-x="1916" d="M121 -217v567l194 -196l312 311l178 -178l-311 -312l194 -194zM121 891v567h567l-194 -194l311 -312l-178 -178l-312 313zM1114 287l178 178l312 -311l194 194v-565h-567l194 194zM1114 952l311 312l-194 194h565v-567l-192 194l-312 -311z" />
<glyph unicode="a" horiz-adv-x="1658" d="M20 186q0 43 31 74t74 31t73.5 -31t30.5 -74v-16q20 -16 70 -43q45 -25 80 -47q96 -63 295 -68l65 310q6 129 15 393h-279l-106 24q-29 -35 -68 -34q-35 0 -59.5 24.5t-24.5 59t24.5 59t59.5 24.5q47 0 68 -36h389q4 147 6 196q-66 23 -105 76q-41 57 -41 125 q0 86 61.5 147.5t145.5 61.5q86 0 147.5 -61.5t61.5 -147.5q0 -66 -41 -123q-39 -53 -104 -76q0 -4 1 -15t2 -31.5t1 -39.5l4 -114h387q23 37 68 36q35 0 59.5 -24.5t24.5 -57t-25 -57t-59 -24.5q-43 0 -66 34l-108 -24h-277l12 -393l68 -316q14 -2 43 -2q133 0 203 45 l196 127q-2 2 -2 12q0 43 31 74t74 31l-15 -4q43 0 74 -31t31 -74t-31 -73.5t-74 -30.5h-12h-12q-92 -80 -162 -121q-166 -113 -319 -156q-145 -90 -185 -90q-29 0 -194 92q-156 45 -320 154q-70 47 -162 121h-10h-10q-43 0 -74 30.5t-31 73.5zM705 1227l2 -4 q0 -45 30.5 -76t77.5 -31t78 31t31 78t-33 78q-35 31 -80 30.5t-75.5 -31t-30.5 -75.5z" />
<glyph unicode="b" horiz-adv-x="1882" d="M104 -10v1210l840 232l836 -232v-1210l-836 -234zM246 94l626 -172v899l-626 176v-903zM330 1118l612 -172l614 172l-612 168zM1012 -80l628 174v901l-628 -174v-901z" />
<glyph unicode="c" horiz-adv-x="1859" d="M74 350q0 96 45 172t123 123q-10 41 -11 70q0 96 68 163.5t166 67.5q80 0 141 -49q63 131 186 211t273 80q213 0 360.5 -147.5t147.5 -358.5q0 -25 -2 -31l-2 -2q96 -41 151 -123q55 -84 56 -188q0 -139 -98.5 -237.5t-237.5 -98.5h-19h-405v332h61h156q25 0 31 12 q6 14 -9 35l-297 354q-14 20 -38.5 20.5t-38.5 -20.5l-297 -354q-16 -23 -11 -33q6 -12 33 -12h156h61v-332h-405h-2h-2h-4v2q-139 4 -238 105q-98 102 -98 239z" />
<glyph unicode="d" horiz-adv-x="1880" d="M82 573q0 354 252 606.5t606 252.5q356 0 608 -252t252 -607q0 -356 -252 -608t-608 -252q-354 0 -606 252t-252 608zM301 573q0 -266 188.5 -454.5t454.5 -188.5q213 0 375 119l-897 899q-121 -170 -121 -375zM567 1098l897 -897q121 168 121 372h4q0 266 -190 455 q-193 188 -457 189q-207 0 -375 -119z" />
<glyph unicode="e" horiz-adv-x="1138" d="M10 -244l490 791h-328l954 885l-395 -701h324z" />
<glyph unicode="f" horiz-adv-x="1867" d="M111 -47q0 94 67.5 161.5t161.5 67.5t161.5 -67.5t67.5 -161.5t-67.5 -161.5t-161.5 -67.5t-161.5 67.5t-67.5 161.5zM113 850q307 0 563 -150q260 -152 409 -407q150 -258 154 -563h-328q-2 328 -233 559q-233 233 -563 233v328h-2zM113 1104v330v-2q346 0 659 -136 q311 -135 543 -362q227 -225 364 -545q133 -313 138 -663h-328q-4 377 -186 692q-184 317 -501.5 501.5t-688.5 184.5z" />
<glyph unicode="g" horiz-adv-x="1830" d="M53 -4v72q0 6 2 12q2 10 24.5 30.5t61.5 36.5q10 4 43 25t72 37q35 14 78 24q-29 33 -60 111q-8 18 -8 82q0 80 2 86q23 90 129 90q102 0 131 -90q2 -6 2 -86q0 -63 -8 -82q-31 -74 -49 -98q-109 -66 -108 -148l-3 -6v-96h-309zM438 -8v96q0 2 4 18q2 12 33 39 q35 31 82 54q29 14 59 32q47 27 99 50q53 23 106 30q-37 43 -80 152q-12 29 -12 117q0 111 2 114q33 125 178 125q143 0 181 -125q2 -4 2 -114q0 -84 -13 -115q-45 -115 -82 -152q59 -10 108.5 -30.5t98.5 -49.5q47 -27 60 -30v-6q51 -20 82 -50q33 -29 34 -43l4 -16v-96 h-946zM1290 426q0 80 2 86q29 90 131.5 90t130.5 -90v-84q0 -63 -8 -82q-31 -78 -59 -110q43 -10 78 -25q25 -10 73 -35l45 -22q41 -14 61.5 -37t24.5 -31l3 -12l-5 -74h-309v96v2q-8 88 -112 150q-18 31 -46 98q-10 25 -10 80z" />
<glyph unicode="h" horiz-adv-x="1855" d="M66 571.5q0 147.5 53 294.5q20 57 80 58q2 0 22 -4l12 -2q119 236 351 346l-4 14q-10 33 6 61.5t47 40.5q145 51 294.5 51.5t297.5 -53.5q33 -10 47 -36.5t6 -61.5l-4 -14q231 -115 348 -344l12 2q20 4 23 4q59 0 80 -58l-4 -4q51 -135 51 -294.5t-51 -295.5 q-20 -57 -82 -57q-14 0 -21 2l-14 4q-113 -227 -346 -346l4 -14q8 -33 -6 -62q-16 -29 -45 -41q-145 -51 -295 -51q-152 0 -297 51q-29 12 -45.5 41t-5.5 62l4 14q-231 115 -351 346l-14 -4q-4 -2 -20 -2q-59 0 -80 57q-53 148 -53 295.5zM152 569q0 -129 47 -266l338 84 q-41 94 -41 182q0 94 43 183l-340 84q-47 -142 -47 -267zM578 569q0 -78 32 -145q10 -20 11 -37q0 -18 -11 -35q-10 -23 -32 -37q33 -45 92 -92q8 20 34 37q14 8 37 8t37 -8q66 -33 148 -33q80 0 145 33q14 8 36.5 8t37.5 -8l2 -2q27 -16 35 -33q51 35 90 86q-23 12 -35 37 q-8 16 -8 37t8 39q33 63 33 145q0 80 -33 146q-8 16 -8 36.5t8 36.5q16 25 37 37q-39 49 -92 88q-14 -23 -37 -32q-14 -8 -37 -8.5t-37 8.5q-66 33 -147 32q-80 0 -146 -32q-14 -8 -36.5 -8.5t-37.5 8.5q-27 16 -34 32q-53 -39 -92 -88q23 -12 34 -37q8 -16 8.5 -36.5 t-8.5 -36.5q-34 -76 -34 -146zM659 1296l82 -338q92 41 184.5 41t184.5 -41l82 338q-129 47 -266 47h-2q-136 0 -265 -47zM659 -156q129 -47 267 -47q135 0 264 47l-82 338q-88 -41 -182 -41q-92 0 -185 41zM1313 389l338 -84q47 131 47 266q0 137 -45 267l-340 -84 q41 -88 41 -182.5t-41 -182.5z" />
<glyph unicode="i" d="M84 571.5q0 356.5 252 608.5t606 252q356 0 608 -252t252 -608.5t-252 -608.5t-608 -252q-354 0 -606 252t-252 608.5zM707 625l32 -93l13 9q72 66 110 80q0 -12 -6 -43l-88 -373q-12 -61 -12 -123q0 -53 20 -74q18 -20 53 -20q45 0 146 59q98 59 182 152h6l-4 8l-37 78 l-10 -9q-29 -29 -70 -55q-45 -29 -51 -31v11q0 16 6 43l95 385q12 51 12 116q0 37 -12 62q-14 25 -45 24q-53 0 -148 -57q-96 -59 -186 -143zM915 1026q0 -49 29 -82q27 -31 74 -31h2q57 0 98 43q41 45 41 101q0 47 -26 73q-31 35 -80 35v-2q-63 -2 -100.5 -45t-37.5 -92z " />
<glyph unicode="j" horiz-adv-x="1796" d="M35 848q0 31 10 88q25 96 92 166l131 129q104 104 252 104t250 -104l158 -156l96 -98l68 -68l16 -6q80 -80 98 -186q6 -31 6 -64q0 -29 -8 -71l-6 -25q-6 -27 -27 -70l-2 -2q-4 -4 -6 -8l-6 -10l-2 -4l-2 -2q-2 -6 -10 -15l-2 -2q-2 -2 -2 -6q-8 -8 -11 -14l-2 -2l-4 -4 q-2 -4 -16 -19l-57 -57l-9 10l-116 115l-6 6l-7 6q-2 2 -2 8.5t-2 8.5l51 51q4 4 7 8q4 8 6 10v2v2v2q4 2 6 13l2 2q2 2 2 6q2 6 6 14v2q0 4 2 6q6 20 6 43q0 35 -14 66q-10 18 -31 41l-116 117l-80 80l-125 124q-43 43 -106.5 43t-106.5 -43l-131 -131q-25 -25 -37 -59 q-6 -23 -6 -47q0 -20 6 -43q8 -39 37 -64l200 -200q-2 -8 -2 -35q0 -49 9 -80q23 -135 118 -238q-82 25 -147 86l-4 5l-322 321q-39 39 -59 80q0 2 -2 2v2l-2 2v2q-39 76 -39 160zM582 502q0 35 6 71l6 25q8 29 31 70v2q4 4 6 8l4 10l2 4l2 2q4 4 6 8.5t6 8.5v2l4 4 q4 4 6.5 8t6.5 8v2l4 4l8 9q2 2 4 6l4 4l57 57l9 -10l116 -115q0 -2 4.5 -6t4.5 -6q0 -4 2 -8t2 -9l-52 -51q-4 -4 -6 -8t-6 -8q0 -4 -2 -6v-2l-6 -13q-2 0 -2 -2q0 -4 -2 -6t-2 -8v-8l-2 -2v-4q-8 -16 -8 -45q0 -35 14 -66q10 -18 31 -41l116 -117l82 -79l123 -125 q43 -43 106.5 -43t104.5 43l131 131q25 25 37 59q6 23 6 47q0 20 -6 43q-8 39 -37 64l-200 200q2 8 2 35q0 43 -7 82q-25 137 -120 238q82 -25 145 -86l4 -4l322 -322q39 -39 59 -80q0 -2 2 -2l-10 4l2 -2v-2q39 -70 39 -160q0 -31 -10 -88q-25 -96 -93 -166l-131 -129 q-104 -104 -252 -104q-150 0 -249 104l-158 156l-96 98l-68 68q-78 78 -98 186q-4 54 -4 62z" />
<glyph unicode="k" horiz-adv-x="1835" d="M61 817q0 223 121 327.5t301 104.5q184 0 391 -219l39 -43q4 4 25 29q14 18 63 63q49 47 98.5 80t117.5 62q70 29 129 28l-9 4q182 0 305 -104.5t123 -327.5q0 -98 -53 -209q-51 -104 -104 -161l-54 -58l-641 -639l-641 639l-22 23q-10 10 -51 61t-66 92q-27 45 -49 115 q-23 72 -23 133z" />
<glyph unicode="l" horiz-adv-x="1929" d="M100 125q0 55 41 96t97 41l-7 -6q59 0 99 -39q41 -41 41 -94q0 -59 -39 -98t-99 -39q-53 0 -94 41q-39 39 -39 98zM106 710.5q0 57.5 41 98.5t97 41l-6 -6q59 0 98 -39q41 -41 41 -98q0 -55 -39 -94.5t-98 -39.5q-53 0 -95 41q-39 39 -39 96.5zM113 1296q0 55 41 96.5 t96 41.5l-6 -7q59 0 98 -38q41 -41 41 -95q0 -59 -39 -98t-98 -39q-53 0 -94 41q-39 39 -39 98zM571 0v272h1239v-272h-1239zM571 582v272h1239v-272h-1239zM571 1161v273h1239v-273h-1239z" />
<glyph unicode="m" horiz-adv-x="1654" d="M37 -110.5q0 108.5 94 184.5t227 76q74 0 142 -27v1051h4l897 212l178 44l2 -179v-1052q-2 -106 -94 -180t-225.5 -74t-227.5 75.5t-94 184t94 184.5t228 76q76 0 143 -27v631l-721 -172v-1014q-2 -106 -98 -180q-94 -74 -227.5 -74t-227.5 76t-94 184.5z" />
<glyph unicode="n" horiz-adv-x="1957" d="M119 -2v1149q0 119 84 203t203 84h1148q119 0 203 -84t84 -203v-1149q0 -119 -84 -203t-203 -84h-1148q-119 0 -203 84t-84 203zM334 -2v-2q0 -27 22 -49q20 -20 50 -21h124v240h-196v-168zM334 211h196v233h-196v-233zM334 487h196v234h-196v-234zM334 764h196v240h-196 v-240zM575 -76h979q27 0 49.5 22.5t22.5 49.5v168h-1051v-240zM575 211h1051v233h-1051v-233zM575 487h1051v234h-1051v-234zM575 764h1051v240h-1051v-240z" />
<glyph unicode="o" horiz-adv-x="1927" d="M119 -12v1075q0 23 14 37q16 16 37 16h78l59 121q20 45 74 45h324q53 0 73 -45l58 -121h940v-2q23 0 37 -14.5t14 -36.5v-1075q0 -23 -14.5 -37t-36.5 -14h-1606q-23 0 -37 14t-14 37z" />
<glyph unicode="p" horiz-adv-x="1751" d="M18 -283l150 465l942 942l313 -313l-942 -942zM332 184l53 -51l776 776l-51 54zM1217 1231l204 205l316 -314l-207 -204z" />
<glyph unicode="q" horiz-adv-x="1863" d="M63 582v485q0 104 74 178t180 74h863q104 0 178 -74t74 -178v-485v2q0 -106 -74 -180t-178 -74h-611q-102 -102 -204.5 -147.5t-184.5 -45.5q-70 0 -69 23q0 8 6 10q100 76 135 166q-82 20 -135.5 90t-53.5 156zM500 129q66 39 114 88h566q150 0 258 108.5t108 258.5v481 q96 -8 160 -80q66 -72 66 -170v-487l2 -4q0 -84 -53.5 -154t-135.5 -90q31 -88 135 -168q27 -16 -18 -29q-25 -6 -51 -6q-78 0 -183 49q-106 51 -198 148h-613q-87 0 -157 55z" />
<glyph unicode="r" horiz-adv-x="1843" d="M68 141l350 353v-236v-12h991q33 0 55.5 22.5t22.5 55.5v245l49 49l186 187v-533q0 -262 -262 -262h-1042v-221zM121 420v532q0 260 262 260h1042v222l351 -351l-351 -352v236v12h-991q-33 0 -55 -25q-23 -27 -23 -57v-244l-49 -47z" />
<glyph unicode="s" horiz-adv-x="1769" d="M37 793q0 264 188.5 452.5t452.5 188.5q266 0 452 -187q188 -188 189 -450q0 -182 -96 -338l448 -451l-8 -6q47 -47 47 -111q0 -57 -41 -98q-39 -39 -98 -39q-63 0 -111 47l-448 449q-152 -98 -338 -98q-262 0 -451 188q-186 187 -186 453zM315 790.5 q0 -147.5 104.5 -252t252 -104.5t252 104.5t104.5 252t-104.5 252t-252 104.5t-252 -104.5t-104.5 -252z" />
<glyph unicode="t" horiz-adv-x="1882" d="M82 573q0 354 252 606.5t608 252.5q354 0 606 -252t252 -607q0 -356 -252 -608t-606 -252q-356 0 -608 252t-252 608zM295 575q0 -266 190.5 -456.5t456.5 -190.5t455 191q188 193 188 456q0 266 -188.5 455t-454.5 189q-264 0 -457 -189q-190 -187 -190 -455zM852 539 v467q0 14 10 24q16 10 27 10h94q14 0 24.5 -10t10.5 -24v-396l340 -229v-4q18 -12 18 -29q0 -10 -8 -18l-49 -80q-10 -12 -23 -17h-8q-10 0 -18 7l-396 264l-6 6q-2 2 -6 2q-10 17 -10 27z" />
<glyph unicode="u" horiz-adv-x="1955" d="M123 -86v1378h1710v-1378h-1710zM266 57h1424v1094h-1424v-1094zM371 973q0 37 26 61q29 25 64 25q37 0 61.5 -24.5t24.5 -61.5q0 -35 -25 -64q-25 -27 -61.5 -26.5t-63 27t-26.5 63.5zM371 235.5q0 36.5 26.5 63.5t63.5 27t61 -27q25 -29 25 -63q0 -37 -24.5 -61.5 t-61.5 -24.5q-35 0 -64 24q-26 25 -26 61.5zM748 270v666h466v-666h-466zM868 371h224v241h-224v-241zM1407 235.5q0 36.5 26.5 63.5t63.5 27t62 -27q25 -29 24 -63q0 -37 -24.5 -62t-61.5 -25q-35 0 -63 25q-27 25 -27 61.5zM1407 973q0 37 27 61q29 25 63 25 q37 0 61.5 -24.5t24.5 -61.5q0 -35 -24 -64q-25 -27 -62 -26.5t-63.5 27t-26.5 63.5z" />
<glyph unicode="v" horiz-adv-x="1935" d="M111 125v967q0 20 16 36q14 14 37 15h354q0 2 2 2l47 98q10 18 30.5 30.5t43.5 12.5h653q53 0 74 -45l49 -98v-2h357l-5 2q23 0 37 -15q16 -16 17 -36v-967q0 -23 -14.5 -37t-36.5 -14h-1610q-23 0 -37 14t-14 37zM596 614q0 -152 109 -260q106 -106 258 -106v-4 q154 0 262 108.5t108 262t-108.5 262t-261.5 108.5q-150 0 -258.5 -108.5t-108.5 -262.5z" />
<glyph unicode="w" horiz-adv-x="1898" d="M109 690q0 238 196 434q225 229 578 269q57 8 129 8q272 0 495 -139q272 -170 305 -449l3 -2q4 -45 4 -68q0 -240 -199 -436q-223 -225 -578 -264q-57 -8 -124 -8q-61 0 -121 6q-186 -193 -404 -215q-18 -2 -49 -2q-53 0 -68 18q-6 10 7 19q166 127 166 270q0 16 -3 27 q-137 78 -229 200q-90 121 -104 265q-4 44 -4 67z" />
<glyph unicode="x" horiz-adv-x="1943" d="M70 1065q0 2 34 37q129 -131 146 -139q16 -10 92 -11q59 0 133 74t74 135q0 74 -12 92q-14 20 -138 142q31 37 37 37h4q150 0 271 -123q123 -123 123 -275q0 -57 -33 -116l157 -160l-198 -199q-4 0 -33 -4l-145 143q-66 -31 -115 -30q-150 0 -272 123q-121 120 -125 274z M242 -84q0 35 24 61q6 2 13 13l413 413q8 6 13 13q23 23 55 22q18 0 39 -6l397 397l8 13q2 2 5 6t5 8l3 2q4 4 10 16q8 16 10 23q4 12 4 23q0 18 -2 28q-4 20 -8 31q-35 59 -123 78h-2q-35 0 -113 76l-12 12q-41 41 -41 53q0 14 37 53l147 150q35 35 54 35q12 0 53 -41 l12 -13q68 -68 76 -100q8 -41 49 -92q6 -8 37 -8t39 -8l244 -244q94 -94 94 -277q0 -111 -33 -241l-31 -103l-108 105l-6 -2v16v37q0 37 -2 55q-4 29 -13 66q-10 43 -20 67q-12 31 -37 61.5t-57 49.5h-7q-23 0 -69 -45l-447 -445q6 -20 6 -36q0 -33 -22 -60l-12 -12 l-412 -412l-12 -12q-23 -23 -60 -23q-84 0 -157 99q-41 57 -41 98zM1077 205q4 29 4 33l201 200l285 -284l192 -142l21 -78l-213 -213l-76 21l-143 192zM1458 -45q0 -37 24.5 -61.5t61.5 -24.5q41 0 65.5 24.5t24.5 61.5q0 41 -24.5 65.5t-63.5 24.5l-2 -2 q-37 0 -61.5 -24.5t-24.5 -63.5z" />
<glyph unicode="y" horiz-adv-x="1837" d="M66 483v199q0 18 12 34.5t31 18.5l253 47q29 10 29 25q0 12 -8 22l-147 218q-10 16 -11 30q0 20 19 39l139 139q18 18 39 19q14 0 31 -10l215 -148q16 -10 30.5 -4t18.5 25l47 254q2 18 18.5 30.5t34.5 12.5h199q20 0 34.5 -12.5t18.5 -30.5l47 -254q2 -18 19 -25 q14 -6 30 4l217 148q16 10 31 10q20 0 39 -19l139 -139q18 -18 19 -39q0 -14 -11 -30l-147 -218q-8 -10 -8 -22q0 -14 29 -25l253 -47q18 -2 30.5 -18.5t12.5 -34.5v-199q0 -20 -12 -34.5t-31 -18.5l-253 -47q-18 -2 -25 -16q-6 -12 4 -29l147 -217q10 -16 11 -31 q0 -20 -19 -39l-139 -139q-18 -18 -37 -18q-14 0 -31 12l-217 145q-16 10 -30.5 4t-18.5 -24l-47 -256q-2 -18 -18.5 -30.5t-34.5 -12.5h-199q-20 0 -34.5 12t-18.5 31l-47 256q-2 18 -19 24q-14 6 -30 -4l-215 -145q-20 -10 -35 -10q-20 0 -37 16l-139 139q-18 18 -19 39 q0 14 11 31l147 217q10 16 4 29q-6 14 -25 16l-253 47q-18 4 -30.5 18.5t-12.5 34.5zM612 580q0 -125 90.5 -215.5t215.5 -90.5v-2q129 0 219 90.5t90 215t-90 219.5q-88 92 -219 92q-127 0 -216 -92q-90 -94 -90 -217z" />
<glyph unicode="z" horiz-adv-x="1507" d="M68 1239q-2 47 30 74l88 90q29 27 70 27h6l387 -35q47 -2 74 -37l715 -715q16 -16 16 -30.5t-16 -30.5l-520 -523q-16 -12 -33 -12q-18 0 -31 12l-717 717q-33 35 -35 74zM90 666l686 -686q47 -47 111 -48v-2q70 0 112 47l361 361l80 -80q14 -14 14 -30.5t-14 -30.5 l-520 -521q-16 -16 -31 -16t-31 16l-717 717q-33 33 -35 74zM205 1194q0 -39 28 -68q27 -27 68 -26.5t67.5 27t26.5 67.5t-26 68q-29 29 -68 28.5t-67.5 -29t-28.5 -67.5z" />
<glyph unicode="{" horiz-adv-x="1560" d="M23 612l757 877l758 -877h-569v-835h-379v835h-567z" />
<glyph unicode="|" horiz-adv-x="1873" d="M74 639v500q0 119 84 202.5t202 83.5h713q121 0 203 -82q84 -84 84 -202v-215h-213v215q0 29 -21 49q-23 23 -49 22h-712q-29 0 -49.5 -20.5t-20.5 -48.5v-500q0 -27 22 -49q20 -20 50 -21h6l-8 -6q-6 -35 -7 -73v-142q-119 0 -202 84q-82 82 -82 203zM500 -2v498 q0 119 84 202.5t202 83.5h713h-2q117 0 201 -84t84 -202v-498q0 -119 -84 -203t-201 -84h-713q-119 0 -202 84q-82 82 -82 203zM713 -2q0 -29 22 -51q20 -20 49 -21h713q29 0 49.5 20.5t20.5 51.5l-2 498q0 31 -20.5 51t-49.5 20h-713q-29 0 -49 -20.5t-20 -50.5v-498z" />
<glyph unicode="}" horiz-adv-x="1560" d="M23 616h567v838h379v-838h569l-758 -874z" />
<glyph unicode="~" d="M82 571.5q0 356.5 252 608.5t608 252t608 -252t252 -608.5t-252 -608.5t-608 -252t-608 252t-252 608.5zM594 70h297l-80 -80h258l-80 80h297v475h-340l297 342h-229v276h-154v-276h-229l295 -342h-332v-475zM682 156v303h518v-303h-518z" />
<glyph unicode="&#xaa;" horiz-adv-x="1658" d="M20 186q0 43 31 74t74 31t73.5 -31t30.5 -74v-16q20 -16 70 -43q45 -25 80 -47q96 -63 295 -68l65 310q6 129 15 393h-279l-106 24q-29 -35 -68 -34q-35 0 -59.5 24.5t-24.5 59t24.5 59t59.5 24.5q47 0 68 -36h389q4 147 6 196q-66 23 -105 76q-41 57 -41 125 q0 86 61.5 147.5t145.5 61.5q86 0 147.5 -61.5t61.5 -147.5q0 -66 -41 -123q-39 -53 -104 -76q0 -4 1 -15t2 -31.5t1 -39.5l4 -114h387q23 37 68 36q35 0 59.5 -24.5t24.5 -57t-25 -57t-59 -24.5q-43 0 -66 34l-108 -24h-277l12 -393l68 -316q14 -2 43 -2q133 0 203 45 l196 127q-2 2 -2 12q0 43 31 74t74 31l-15 -4q43 0 74 -31t31 -74t-31 -73.5t-74 -30.5h-12h-12q-92 -80 -162 -121q-166 -113 -319 -156q-145 -90 -185 -90q-29 0 -194 92q-156 45 -320 154q-70 47 -162 121h-10h-10q-43 0 -74 30.5t-31 73.5zM705 1227l2 -4 q0 -45 30.5 -76t77.5 -31t78 31t31 78t-33 78q-35 31 -80 30.5t-75.5 -31t-30.5 -75.5z" />
<glyph unicode="&#xad;" horiz-adv-x="1886" d="M82 569.5q0 356.5 252 608.5t610 252q356 0 608 -252t252 -608.5t-252 -608.5t-608 -252q-358 0 -610 252t-252 608.5zM459 526q0 -39 28 -67q27 -27 68 -27h770q39 0 67.5 28.5t28.5 67.5v78q0 39 -28.5 67.5t-67.5 28.5h-770q-39 0 -67.5 -28.5t-28.5 -67.5v-80z" />
<glyph unicode="&#xb2;" horiz-adv-x="1882" d="M82 575.5q0 356.5 252 608.5t606 252q356 0 608 -252t252 -608.5t-252 -608.5t-608 -252q-354 0 -606 252t-252 608.5zM387 514q0 -18 12 -31l285 -286q31 -31 76 -31h53q39 0 74 31l604 606h-2q12 12 12 30.5t-12 32.5l-113 111q-12 12 -30.5 12t-32.5 -12l-498 -500 q-16 -16 -30.5 -16t-30.5 16l-181 180q-16 16 -30.5 16.5t-30.5 -16.5l-113 -110q-12 -15 -12 -33z" />
<glyph unicode="&#xb3;" horiz-adv-x="1777" d="M18 540.5q0 28.5 21 49.5l170 170q20 20 49 20t49 -20l279 -277q20 -20 49 -20t49 20l760 762q20 20 49 20.5t49 -20.5l170 -168q20 -20 20.5 -49t-20.5 -49l-921 -924q-49 -49 -117 -49h-80q-66 0 -115 49l-434 434l-6 3q-21 20 -21 48.5z" />
<glyph unicode="&#xb9;" horiz-adv-x="1521" d="M55 422q0 291 207 497.5t498 206.5q39 0 51 -2v162v146l100 -103l322 -321l43 -43l-43 -41l-322 -322l-100 -102v143v180q-49 4 -51 4q-170 0 -289 -118.5t-119 -288.5q0 -168 121 -289q119 -119 289 -119t288.5 119t118.5 289v61h62h178h53v-61q0 -293 -204.5 -498 t-497.5 -205q-291 0 -498 207t-207 498z" />
<glyph unicode="&#xba;" horiz-adv-x="1927" d="M119 -12v1075q0 23 14 37q16 16 37 16h78l59 121q20 45 74 45h324q53 0 73 -45l58 -121h940v-2q23 0 37 -14.5t14 -36.5v-1075q0 -23 -14.5 -37t-36.5 -14h-1606q-23 0 -37 14t-14 37z" />
<glyph unicode="&#xc0;" horiz-adv-x="1828" d="M-279 1559v567l195 -197l311 312l179 -179l-312 -311l195 -195zM-279 2666v568h568l-195 -195l312 -311l-179 -178l-311 313zM53 968.5q0 108.5 78 186.5l203 203q78 78 188.5 78t188.5 -78l295 -295q78 -78 77 -184q0 -100 -63 -172l-143 141q8 14 8 31q0 27 -21 47 l-295 295q-18 18 -44.5 18t-45.5 -18l-203 -203q-20 -20 -20 -49t20 -49l295 -295q20 -20 43 -21q16 0 31 8l139 -141q-74 -61 -170 -61h-12q-102 4 -176 77l-295 295q-78 78 -78 186.5zM500 883q0 43 28 71v-6q29 29 68 29t68 -29l604 -604q29 -29 28.5 -67.5t-29 -67.5 t-67.5 -29t-67 29l-605 602q-28 29 -28 72zM715 2062l178 179l311 -312l195 195v-565h-568l195 194zM715 2728l311 311l-195 195h566v-568l-193 195l-311 -311zM741 272v11q0 96 62 170l141 -144q-6 -14 -6 -30q0 -25 20 -46l295 -294q18 -20 47 -20.5t48 20.5l202 202 q20 18 20.5 47t-20.5 48l-295 296q-18 18 -43 19q-16 0 -32 -8l-142 143q72 63 172 64q4 0 7 -2q106 -4 178 -76l295 -295q76 -76 75 -189q0 -111 -75 -186l-203 -203h-6q-76 -76 -184.5 -75.5t-184.5 75.5l-297 297q-70 70 -74 176z" />
<glyph unicode="&#xc2;" horiz-adv-x="1828" d="M55 968.5q0 108.5 78 186.5l203 203q78 78 188.5 78t188.5 -78l295 -295q78 -78 77 -184q0 -100 -63 -172l-143 141q8 14 8 31q0 27 -21 47l-295 295q-18 18 -44.5 18t-45.5 -18l-202 -203q-20 -20 -20.5 -49t20.5 -49l294 -295q20 -20 43 -21q16 0 31 8l139 -141 q-74 -61 -170 -61h-12q-100 4 -176 77l-295 295q-78 78 -78 186.5zM188 1556v1674q0 35 25 59.5t61 24.5q35 0 59.5 -24.5t24.5 -59.5l4 -1674h-174zM461 2322v818l119 30l229 52q141 31 242 30h16q104 -4 104 -49q0 -2 -1 -6t-2 -11.5t-1 -13.5l-6 -49q-2 -16 -2 -49 q0 -23 10 -37q10 -12 31 -10q49 8 160 14l170 8l67 5h-2q20 -43 21 -107q0 -74 -26.5 -166t-26.5 -233q0 -100 16 -244l-43 -6q-6 0 -100 -17q-82 -14 -136 -16q-82 -4 -124 -4q-63 0 -94 18.5t-21 53.5q6 18 6 34q0 59 -94 60h-10q-127 -2 -375 -98q-45 -16 -78 -17 q-24 0 -49 10zM502 883q0 43 28 71v-6q29 29 68 29t68 -29l604 -604q29 -29 28.5 -67.5t-29 -67.5t-67.5 -29t-67 29l-605 602q-28 29 -28 72zM743 272v11q0 96 62 170l141 -144q-6 -14 -6 -30q0 -25 21 -46l294 -294q18 -20 47 -20.5t48 20.5l202 202q20 18 20.5 47 t-20.5 48l-295 296q-18 18 -43 19q-16 0 -32 -8l-142 143q72 63 172 64q4 0 7 -2q106 -4 178 -76l295 -295q76 -76 75 -189q0 -111 -75 -186l-203 -203h-6q-76 -76 -184.5 -75.5t-184.5 75.5l-297 297q-70 70 -74 176z" />
<glyph unicode="&#xc3;" horiz-adv-x="1828" d="M-72 2416.5q0 356.5 252 608.5t608.5 252t608.5 -252t252 -608.5t-252 -608.5t-608.5 -252t-608.5 252t-252 608.5zM53 968.5q0 108.5 78 186.5l203 203q78 78 188.5 78t188.5 -78l295 -295q78 -78 77 -184q0 -100 -63 -172l-143 141q8 14 8 31q0 27 -21 47l-295 295 q-18 18 -44.5 18t-45.5 -18l-203 -203q-20 -20 -20 -49t20 -49l295 -295q20 -20 43 -21q16 0 31 8l139 -141q-74 -61 -170 -61h-12q-102 4 -176 77l-295 295q-78 78 -78 186.5zM440 1915h297l-80 -80h258l-79 80h297v475h-340l297 342h-230v277h-153v-277h-230l295 -342 h-332v-475zM500 883q0 43 28 71v-6q29 29 68 29t68 -29l604 -604q29 -29 28.5 -67.5t-29 -67.5t-67.5 -29t-67 29l-605 602q-28 29 -28 72zM528 2001v303h519v-303h-519zM741 272v11q0 96 62 170l141 -144q-6 -14 -6 -30q0 -25 20 -46l295 -294q18 -20 47 -20.5t48 20.5 l202 202q20 18 20.5 47t-20.5 48l-295 296q-18 18 -43 19q-16 0 -32 -8l-142 143q72 63 172 64q4 0 7 -2q106 -4 178 -76l295 -295q76 -76 75 -189q0 -111 -75 -186l-203 -203h-6q-76 -76 -184.5 -75.5t-184.5 75.5l-297 297q-70 70 -74 176z" />
<glyph unicode="&#xc8;" horiz-adv-x="1832" d="M61 606v19l45 51q25 27 121 110q90 78 189 142q96 61 233 110t269 49l-7 -2q129 0 265 -49q137 -49 237 -116q102 -68 184 -136q86 -70 127 -116l43 -47v-17l-45 -51q-25 -27 -120 -111q-90 -78 -189 -141q-94 -61 -233.5 -110.5t-266.5 -49.5q-129 0 -264 49 q-133 49 -235.5 117t-184.5 135q-74 61 -125 115zM174 1442v567l195 -197l311 312l178 -178l-311 -312l194 -194zM174 2550v567h567l-194 -195l311 -311l-178 -178l-311 313zM623 606q0 -119 84 -203q82 -82 200 -81l-6 -7q119 0 203 84t84 203t-82 201q-84 84 -203 84 q-117 0 -198.5 -82t-81.5 -199zM774 600q0 51 37 92q37 39 90 39t92 -39t39 -92t-39 -90t-92 -37t-90 37t-37 90zM1167 1946l179 178l311 -312l194 195v-565h-567l195 194zM1167 2611l312 311l-195 195h565v-567l-192 194l-311 -311z" />
<glyph unicode="&#xca;" horiz-adv-x="1832" d="M63 606v19l46 51q25 27 120 110q90 78 189 142q94 61 233.5 110t268.5 49l-7 -2q129 0 265 -49q137 -49 237.5 -116.5t183.5 -135.5q86 -70 127 -116l43 -47v-17l-45 -51q-25 -27 -120 -111q-90 -78 -189 -141q-96 -61 -233.5 -110.5t-266.5 -49.5t-264 49 q-133 49 -235 117q-100 68 -185 135q-74 61 -125 115zM625 606q0 -119 84 -203q82 -82 200 -81l-6 -7q119 0 203 84t84 203t-82 201q-84 84 -203 84q-117 0 -198.5 -82t-81.5 -199zM641 1440v1673q0 35 24.5 59.5t61.5 24.5q35 0 59.5 -24.5t24.5 -59.5l4 -1673h-174z M776 600q0 51 37 92q37 39 90 39t92 -39t39 -92t-39 -90q-41 -37 -92 -37q-53 0 -90 37t-37 90zM913 2206v817l119 31q51 12 230 51q141 31 241 30h17q104 -2 104 -49q0 -2 -1 -6t-2 -11t-1 -13l-6 -50q-2 -16 -2 -49q0 -23 10 -37q10 -12 31 -10q49 8 159 15l170 8l68 4h-2 q20 -43 20 -107q0 -74 -26.5 -166t-26.5 -233q0 -100 17 -244q-16 -4 -43 -6q-6 0 -101 -16q-82 -14 -135 -17q-82 -4 -125 -4q-63 0 -94 18.5t-21 53.5q6 18 7 35q0 59 -95 59h-10q-125 -4 -375 -98q-45 -16 -77 -17q-25 1 -50 11z" />
<glyph unicode="&#xcc;" horiz-adv-x="1908" d="M98 -164v643l322 856h1069l321 -856v-643h-1712zM150 1460v568l194 -197l311 311l179 -178l-312 -311l195 -195zM150 2568v567h567l-195 -194l312 -311l-179 -179l-311 314zM313 479h404l100 -196h266l109 196h405l-215 660l-856 2zM1143 1964l178 178l311 -311l195 194 v-565h-567l194 195zM1143 2630l311 311l-194 194h565v-567l-193 195l-311 -312z" />
<glyph unicode="&#xce;" horiz-adv-x="1908" d="M100 -164v643l322 856h1069l321 -856v-643h-1712zM315 479h404l100 -196h266l109 196h405l-215 660l-856 2zM616 1458v1673q0 35 25 59.5t61 24.5q35 0 59.5 -24.5t24.5 -59.5l5 -1673h-175zM889 2224v817l119 31q51 12 229 51q141 31 242 31h16q104 -4 104 -49 q0 -2 -1 -6t-2 -11.5t-1 -13.5l-6 -49q-2 -16 -2 -49q0 -23 10 -37q10 -12 31 -10q49 8 160 14l170 8l67 4h-2q20 -43 21 -106q0 -74 -26.5 -166t-26.5 -234q0 -100 16 -243q-16 -2 -43 -6q-6 0 -100 -17q-82 -14 -135 -16q-82 -4 -125 -4q-63 0 -94 18.5t-21 52.5 q6 18 6 35q0 59 -94 60h-10q-125 -2 -375 -99q-45 -16 -78 -16q-24 0 -49 10z" />
<glyph unicode="&#xd1;" horiz-adv-x="1931" d="M109 74v985q0 35 12 47t47 12h188v195q0 35 12.5 47t47.5 12h1339v-2q35 0 47.5 -12t12.5 -47v-1342q0 -35 -12.5 -47t-47.5 -12h-221h-1118h-146q-57 0 -110 55q-51 54 -51 109zM211 72q0 -14 22.5 -37t36.5 -23h146h1118h180v1256h-1257v-152v-102v-912h-101v912h-145 v-942zM489 2355.5q0 356.5 252 608t608.5 251.5t608.5 -251.5t252 -608t-252 -608.5t-608.5 -252t-608.5 252t-252 608.5zM590 217v76h977v-76h-977zM590 453v75h977v-75h-977zM590 680v457h457v-457h-457zM1001 1853h297l-79 -79h258l-80 79h297v476h-340l297 342h-230v276 h-153v-276h-230l295 -342h-332v-476zM1090 1939v304h518v-304h-518zM1188 764v76h379v-76h-379zM1188 997v76h379v-76h-379z" />
<glyph unicode="&#xd2;" horiz-adv-x="1904" d="M98 -2v1046h142v-1046h-142zM145 1442v567l195 -197l311 312l178 -178l-311 -312l195 -194zM145 2550v567h568l-195 -195l311 -311l-178 -178l-311 313zM381 -2v1046h106q137 272 250 273h424q66 0 135 -82q74 -86 127 -191h97v-1046h-1139zM776 1132.5q0 -26.5 18.5 -45 t45.5 -18.5h213q27 0 45 18.5t18 45t-18.5 45t-44.5 18.5h-213q-27 0 -45.5 -18.5t-18.5 -45zM1139 1946l178 178l311 -312l195 195v-565h-568l195 194zM1139 2611l311 311l-195 195h566v-567l-193 194l-311 -311zM1663 -2v1046h143v-1046h-143z" />
<glyph unicode="&#xd4;" horiz-adv-x="1904" d="M100 -2v1046h142v-1046h-142zM383 -2v1046h106q137 272 250 273h424q66 0 135 -82q74 -86 127 -191h97v-1046h-1139zM612 1440v1673q0 35 25 59.5t61 24.5q35 0 59.5 -24.5t24.5 -59.5l4 -1673h-174zM778 1132.5q0 -26.5 18.5 -45t45.5 -18.5h213q27 0 45 18.5t18 45 t-18.5 45t-44.5 18.5h-213q-27 0 -45.5 -18.5t-18.5 -45zM885 2206v817l119 31q51 12 229 51q141 31 242 30h16q104 -2 104 -49q0 -2 -1 -6t-2 -11t-1 -13l-6 -50q-2 -16 -2 -49q0 -23 10 -37q10 -12 31 -10q49 8 160 15l170 8l67 4h-2q20 -43 21 -107q0 -74 -26.5 -166 t-26.5 -233q0 -100 16 -244q-16 -4 -43 -6q-6 0 -100 -16q-82 -14 -136 -17q-82 -4 -125 -4q-63 0 -93.5 18.5t-20.5 53.5q6 18 6 35q0 59 -94 59h-11q-125 -4 -374 -98q-45 -16 -78 -17q-24 1 -49 11zM1665 -2v1046h143v-1046h-143z" />
<glyph unicode="&#xd5;" horiz-adv-x="1904" d="M98 -2v1046h142v-1046h-142zM352 2300q0 356 252 608t608.5 252t608.5 -252t252 -608t-252 -608t-608.5 -252t-608.5 252t-252 608zM381 -2v1046h106q137 272 250 273h424q66 0 135 -82q74 -86 127 -191h97v-1046h-1139zM776 1132.5q0 -26.5 18.5 -45t45.5 -18.5h213 q27 0 45 18.5t18 45t-18.5 45t-44.5 18.5h-213q-27 0 -45.5 -18.5t-18.5 -45zM864 1798h297l-80 -80h258l-79 80h296v475h-339l296 342h-229v277h-154v-277h-229l295 -342h-332v-475zM952 1884v303h518v-303h-518zM1663 -2v1046h143v-1046h-143z" />
<glyph unicode="&#xd9;" horiz-adv-x="1830" d="M59 -66v177v12q0 8 13 31q14 25 32 43q27 29 64 53q37 27 102 57q18 8 111 60q78 45 178 88q88 39 193 57q-68 70 -148 276q-23 61 -22 205q0 31 -2 64q-2 23 -2 61q0 18 2 25q0 37 6 61q66 227 325.5 227.5t325.5 -227.5q8 -23 8 -61q2 -6 2 -19q0 -39 -2 -61l-4 -66 q0 -150 -20 -204q-78 -199 -148 -275q102 -16 195 -55q100 -43 178 -88q92 -51 110 -60l-2 -8q90 -39 150 -90q55 -49 61 -78l7 -28v-177h-1713zM109 1561v567l194 -197l311 312l179 -179l-312 -311l195 -194zM109 2669v567h567l-195 -195l312 -311l-179 -178l-311 313z M1102 2064l178 179l311 -312l195 195v-565h-567l194 194zM1102 2730l311 311l-194 195h565v-567l-193 194l-311 -311z" />
<glyph unicode="&#xdb;" horiz-adv-x="1830" d="M61 -66v177v12q0 8 13 31q14 25 32 43q29 29 64 53q37 27 102 57q18 8 111 60q78 45 178 88q88 39 193 57q-68 70 -148 276q-23 61 -22 205q0 31 -2 64q-2 23 -2 61q0 18 2 25q0 37 6 61q63 227 325.5 227.5t325.5 -227.5q8 -23 8 -61q2 -6 2 -19q0 -39 -2 -61l-4 -66 q0 -150 -20 -204q-78 -199 -148 -275q102 -16 195 -55q100 -43 178 -88q92 -51 111 -60l-3 -8q90 -39 150 -90q55 -49 61 -78l7 -28v-177h-1713zM575 1559v1673q0 35 25 59.5t62 24.5q35 0 59 -24.5t24 -59.5l5 -1673h-175zM848 2324v818l119 30l229 52q141 31 242 30h16 q104 -2 105 -49q0 -2 -1.5 -6t-2.5 -11t-1 -14l-6 -49q-2 -16 -2 -49q0 -23 10 -37q10 -12 31 -10q49 8 160 14l170 9l68 4h-3q20 -43 21 -107q0 -74 -26.5 -166t-26.5 -233q0 -100 16 -244q-16 -4 -43 -6q-6 0 -100 -16q-82 -14 -135 -17q-82 -4 -125 -4q-63 0 -94 18.5 t-21 53.5q6 18 6 35q0 59 -94 59h-10q-125 -4 -375 -98q-45 -16 -78 -17q-24 0 -49 10z" />
<glyph unicode="&#xe0;" horiz-adv-x="1658" d="M20 186q0 43 31 74t74 31t73.5 -31t30.5 -74v-16q20 -16 70 -43q45 -25 80 -47q96 -63 295 -68l65 310q6 129 15 393h-279l-106 24q-29 -35 -68 -34q-35 0 -59.5 24.5t-24.5 59t24.5 59t59.5 24.5q47 0 68 -36h389q4 147 6 196q-66 23 -105 76q-41 57 -41 125 q0 86 61.5 147.5t145.5 61.5q86 0 147.5 -61.5t61.5 -147.5q0 -66 -41 -123q-39 -53 -104 -76q0 -4 1 -15t2 -31.5t1 -39.5l4 -114h387q23 37 68 36q35 0 59.5 -24.5t24.5 -57t-25 -57t-59 -24.5q-43 0 -66 34l-108 -24h-277l12 -393l68 -316q14 -2 43 -2q133 0 203 45 l196 127q-2 2 -2 12q0 43 31 74t74 31l-15 -4q43 0 74 -31t31 -74t-31 -73.5t-74 -30.5h-12h-12q-92 -80 -162 -121q-166 -113 -319 -156q-145 -90 -185 -90q-29 0 -194 92q-156 45 -320 154q-70 47 -162 121h-10h-10q-43 0 -74 30.5t-31 73.5zM23 1563v567l194 -197 l311 312l179 -179l-312 -311l195 -194zM23 2671v567h567l-195 -195l312 -311l-179 -178l-311 313zM705 1227l2 -4q0 -45 30.5 -76t77.5 -31t78 31t31 78t-33 78q-35 31 -80 30.5t-75.5 -31t-30.5 -75.5zM1016 2066l178 179l311 -312l195 195v-565h-567l194 194zM1016 2732 l311 311l-194 195h565v-567l-193 194l-311 -311z" />
<glyph unicode="&#xe2;" horiz-adv-x="1658" d="M23 186q0 43 30.5 74t73.5 31t73.5 -31t30.5 -74v-16q20 -16 70 -43q45 -25 80 -47q94 -63 295 -68l65 310q6 129 15 393h-279l-106 24q-29 -35 -68 -34q-35 0 -59.5 24.5t-24.5 59t24.5 59t59.5 24.5q45 0 68 -36h389q2 147 6 196q-66 23 -104 76q-41 57 -41 125 q0 86 61 147.5t145 61.5q86 0 147.5 -61.5t61.5 -147.5q0 -66 -41 -123q-39 -53 -104 -76q0 -4 1 -15t2 -31.5t1 -39.5l4 -114h387q20 37 68 36q35 0 59.5 -24.5t24.5 -57t-24.5 -57t-59.5 -24.5q-43 0 -66 34l-108 -24h-277l12 -393l68 -316q14 -2 43 -2q133 0 203 45 l196 127q-2 2 -2 12q0 43 31 74t74 31l-15 -4q43 0 74 -31t31 -74t-31 -73.5t-74 -30.5h-12h-12q-92 -80 -162 -121q-166 -113 -319 -156q-145 -90 -185 -90q-29 0 -194 92q-158 45 -320 154q-70 47 -162 121h-10h-10q-43 0 -73.5 30.5t-30.5 73.5zM489 1561v1673 q0 35 25 59.5t61 24.5q35 0 59.5 -24.5t24.5 -59.5l5 -1673h-175zM707 1227l2 -4q0 -45 30.5 -76t77.5 -31t78 31t31 78t-33 77.5t-80 30.5q-45 0 -75.5 -30.5t-30.5 -75.5zM762 2327v817l119 30l229 52q141 31 242 30h16q104 -4 105 -49q0 -2 -1.5 -6t-2.5 -11t-1 -14 l-6 -49q-2 -16 -2 -49q0 -23 10 -37q10 -12 31 -10q49 8 160 14l170 9l67 4h-2q20 -43 21 -107q0 -74 -26.5 -166t-26.5 -233q0 -100 16 -244q-16 -2 -43 -6q-6 0 -100 -16q-82 -14 -135 -17q-82 -4 -125 -4q-63 0 -94 18.5t-21 53.5q6 18 6 35q0 59 -94 59h-10 q-125 -2 -375 -98q-45 -16 -78 -17q-24 1 -49 11z" />
<glyph unicode="&#xe3;" horiz-adv-x="1658" d="M20 186q0 43 31 74t74 31t73.5 -31t30.5 -74v-16q20 -16 70 -43q45 -25 80 -47q96 -63 295 -68l65 310q6 129 15 393h-279l-106 24q-29 -35 -68 -34q-35 0 -59.5 24.5t-24.5 59t24.5 59t59.5 24.5q47 0 68 -36h389q4 147 6 196q-66 23 -105 76q-41 57 -41 125 q0 86 61.5 147.5t145.5 61.5q86 0 147.5 -61.5t61.5 -147.5q0 -66 -41 -123q-39 -53 -104 -76q0 -4 1 -15t2 -31.5t1 -39.5l4 -114h387q23 37 68 36q35 0 59.5 -24.5t24.5 -57t-25 -57t-59 -24.5q-43 0 -66 34l-108 -24h-277l12 -393l68 -316q14 -2 43 -2q133 0 203 45 l196 127q-2 2 -2 12q0 43 31 74t74 31l-15 -4q43 0 74 -31t31 -74t-31 -73.5t-74 -30.5h-12h-12q-92 -80 -162 -121q-166 -113 -319 -156q-145 -90 -185 -90q-29 0 -194 92q-156 45 -320 154q-70 47 -162 121h-10h-10q-43 0 -74 30.5t-31 73.5zM231 2420.5 q0 356.5 252 608.5t608.5 252t608.5 -252t252 -608.5t-252 -608t-608.5 -251.5t-608.5 251.5t-252 608zM705 1227l2 -4q0 -45 30.5 -76t77.5 -31t78 31t31 78t-33 78q-35 31 -80 30.5t-75.5 -31t-30.5 -75.5zM743 1919h297l-79 -80h258l-80 80h297v475h-340l297 342h-230 v277h-153v-277h-230l295 -342h-332v-475zM831 2005v303h519v-303h-519z" />
<glyph unicode="&#xe8;" horiz-adv-x="1138" d="M10 -244l490 791h-328l954 885l-395 -701h324zM322 1556v568l194 -197l311 311l179 -178l-312 -311l195 -195zM322 2664v568h567l-195 -195l312 -311l-179 -178l-311 313zM1315 2060l178 178l311 -311l195 195v-566h-567l194 195zM1315 2726l311 311l-194 195h565v-568 l-193 195l-311 -311z" />
<glyph unicode="&#xea;" horiz-adv-x="1138" d="M12 -244l490 791h-328l954 885l-395 -701h324zM788 1554v1674q0 35 25 59.5t61 24.5q35 0 59.5 -25t24.5 -59l5 -1674h-175zM1061 2320v818l119 30q51 12 229 51q141 31 242 31h16q104 -2 105 -49q0 -2 -1.5 -6t-2.5 -11.5t-1 -13.5l-6 -49q-2 -16 -2 -49q0 -23 10 -37 q10 -12 31 -10q49 8 160 14l170 8l68 5h-3q20 -43 21 -107q0 -74 -26.5 -166t-26.5 -233q0 -100 16 -244q-16 -4 -43 -6q-6 0 -100 -17q-82 -14 -135 -16q-82 -4 -125 -4q-63 0 -94 18.5t-21 53.5q6 18 6 34q0 59 -94 60h-10q-125 -4 -375 -98q-45 -16 -78 -17q-24 0 -49 10 z" />
<glyph unicode="&#xec;" d="M84 571.5q0 356.5 252 608.5t606 252q356 0 608 -252t252 -608.5t-252 -608.5t-608 -252q-354 0 -606 252t-252 608.5zM137 1556v568l195 -197l311 311l178 -178l-311 -311l195 -195zM137 2664v568h568l-195 -195l311 -311l-178 -178l-311 313zM707 625l32 -93l13 9 q72 66 110 80q0 -12 -6 -43l-88 -373q-12 -61 -12 -123q0 -53 20 -74q18 -20 53 -20q45 0 146 59q98 59 182 152h6l-4 8l-37 78l-10 -9q-29 -29 -70 -55q-45 -29 -51 -31v11q0 16 6 43l95 385q12 51 12 116q0 37 -12 62q-14 25 -45 24q-53 0 -148 -57q-96 -59 -186 -143z M915 1026q0 -49 29 -82q27 -31 74 -31h2q57 0 98 43q41 45 41 101q0 47 -26 73q-31 35 -80 35v-2q-63 -2 -100.5 -45t-37.5 -92zM1130 2060l179 178l311 -311l195 195v-566h-568l195 195zM1130 2726l312 311l-195 195h565v-568l-192 195l-311 -311z" />
<glyph unicode="&#xee;" d="M86 571.5q0 356.5 252 608.5t606 252q356 0 608 -252t252 -608.5t-252 -608.5t-608 -252q-354 0 -606 252t-252 608.5zM604 1554v1674q0 35 24.5 59.5t61.5 24.5q35 0 59.5 -25t24.5 -59l4 -1674h-174zM709 625l32 -93l13 9q70 66 110 80q0 -12 -6 -43l-88 -373 q-12 -61 -12 -123q0 -53 20 -74q18 -20 53 -20q45 0 146 59q98 59 182 152h6l-4 8l-37 78l-10 -9q-29 -29 -70 -55q-45 -29 -51 -31v11q0 16 6 43l95 385q12 51 12 116q0 37 -12 62q-16 25 -45 24q-53 0 -148 -57q-96 -59 -186 -143zM877 2320v818l118 30q51 12 230 51 q141 31 241 31h17q104 -2 104 -49q0 -2 -1 -6t-2 -11.5t-1 -13.5l-6 -49q-2 -16 -2 -49q0 -23 10 -37q10 -12 31 -10q49 8 160 14l170 8l67 5h-2q20 -43 21 -107q0 -74 -27 -166t-27 -233q0 -100 17 -244q-16 -4 -43 -6q-6 0 -101 -17q-82 -14 -135 -16q-82 -4 -125 -4 q-63 0 -94 18.5t-20 53.5q6 18 6 34q0 59 -94 60h-11q-125 -4 -374 -98q-45 -16 -78 -17q-24 0 -49 10zM918 1026q0 -49 28 -82q29 -31 74 -31h2q59 0 98 43q41 45 41 101q0 47 -26 73q-31 35 -80 35v-2q-63 -2 -100 -45t-37 -92z" />
<glyph unicode="&#xf1;" horiz-adv-x="1957" d="M119 -2v1149q0 119 84 203t203 84h1148q119 0 203 -84t84 -203v-1149q0 -119 -84 -203t-203 -84h-1148q-119 0 -203 84t-84 203zM334 -2v-2q0 -27 22 -49q20 -20 50 -21h124v240h-196v-168zM334 211h196v233h-196v-233zM334 487h196v234h-196v-234zM334 764h196v240h-196 v-240zM575 -76h979q27 0 49.5 22.5t22.5 49.5v168h-1051v-240zM575 211h1051v233h-1051v-233zM575 487h1051v234h-1051v-234zM575 764h1051v240h-1051v-240zM614 2416.5q0 356.5 252 608.5t608.5 252t608.5 -252t252 -608.5t-252 -608.5t-608.5 -252t-608.5 252t-252 608.5z M1126 1915h297l-80 -80h259l-80 80h297v475h-340l297 342h-230v277h-153v-277h-230l295 -342h-332v-475zM1214 2001v303h519v-303h-519z" />
<glyph unicode="&#xf2;" horiz-adv-x="1927" d="M-262 1407v567l194 -196l312 311l178 -178l-311 -312l194 -194zM-262 2515v567h567l-194 -194l311 -312l-178 -178l-312 314zM119 -12v1075q0 23 14 37q16 16 37 16h78l59 121q20 45 74 45h324q53 0 73 -45l58 -121h940v-2q23 0 37 -14.5t14 -36.5v-1075q0 -23 -14.5 -37 t-36.5 -14h-1606q-23 0 -37 14t-14 37zM731 1911l178 178l312 -311l194 194v-565h-567l194 195zM731 2576l311 312l-194 194h565v-567l-192 195l-312 -312z" />
<glyph unicode="&#xf4;" horiz-adv-x="1927" d="M121 -12v1075q0 23 14 37q16 16 37 16h78l59 121q20 45 74 45h324q53 0 73 -45l58 -121h940v-2q23 0 37 -14.5t14 -36.5v-1075q0 -23 -14.5 -37t-36.5 -14h-1606q-23 0 -37 14t-14 37zM205 1405v1673q0 35 24.5 59.5t61.5 24.5q35 0 59.5 -24.5t24.5 -59.5l4 -1673h-174z M477 2171v817l119 31q51 12 229 51q141 31 242 31h16q104 -4 105 -49q0 -2 -1 -6.5t-2 -11.5t-1 -13l-6 -49q-2 -16 -2 -50q0 -23 10 -36q10 -12 31 -11q49 8 159 15l170 8l68 4h-2q20 -43 20 -106q0 -74 -26.5 -166.5t-26.5 -233.5q0 -100 16 -244l-43 -6q-6 0 -100 -16 q-82 -14 -135 -16q-82 -4 -125 -5q-63 0 -94 18.5t-21 53.5q6 18 6 35q0 59 -94 59h-10q-127 -2 -375 -98q-45 -16 -78 -16q-24 0 -49 10z" />
<glyph unicode="&#xf5;" horiz-adv-x="1927" d="M-53 2265q0 356 252 608t608 252t608 -252t252 -608t-252 -608t-608 -252t-608 252t-252 608zM119 -12v1075q0 23 14 37q16 16 37 16h78l59 121q20 45 74 45h324q53 0 73 -45l58 -121h940v-2q23 0 37 -14.5t14 -36.5v-1075q0 -23 -14.5 -37t-36.5 -14h-1606q-23 0 -37 14 t-14 37zM459 1763h297l-80 -80h258l-80 80h297v475h-340l297 342h-229v277h-154v-277h-229l295 -342h-332v-475zM547 1849v303h518v-303h-518z" />
<glyph unicode="&#xf9;" horiz-adv-x="1955" d="M123 -86v1378h1710v-1378h-1710zM174 1417v568l195 -197l311 311l178 -178l-311 -311l194 -195zM174 2525v567h567l-194 -194l311 -311l-178 -179l-311 314zM266 57h1424v1094h-1424v-1094zM371 973q0 37 26 61q29 25 64 25q37 0 61.5 -24.5t24.5 -61.5q0 -35 -25 -64 q-25 -27 -61.5 -26.5t-63 27t-26.5 63.5zM371 235.5q0 36.5 26.5 63.5t63.5 27t61 -27q25 -29 25 -63q0 -37 -24.5 -61.5t-61.5 -24.5q-35 0 -64 24q-26 25 -26 61.5zM748 270v666h466v-666h-466zM868 371h224v241h-224v-241zM1167 1921l179 178l311 -311l194 194v-565h-567 l195 195zM1167 2587l312 311l-195 194h565v-567l-192 195l-311 -312zM1407 235.5q0 36.5 26.5 63.5t63.5 27t62 -27q25 -29 24 -63q0 -37 -24.5 -62t-61.5 -25q-35 0 -63 25q-27 25 -27 61.5zM1407 973q0 37 27 61q29 25 63 25q37 0 61.5 -24.5t24.5 -61.5q0 -35 -24 -64 q-25 -27 -62 -26.5t-63.5 27t-26.5 63.5z" />
<glyph unicode="&#xfb;" horiz-adv-x="1955" d="M125 -86v1378h1710v-1378h-1710zM268 57h1424v1094h-1424v-1094zM373 235.5q0 36.5 26.5 63.5t63.5 27t61 -27q25 -29 25 -63q0 -37 -24.5 -61.5t-61.5 -24.5t-63.5 24.5t-26.5 61zM373 973q0 37 26.5 61.5t63.5 24.5t61.5 -24.5t24.5 -61.5q0 -35 -25 -64 q-25 -27 -61.5 -26.5t-63 27t-26.5 63.5zM641 1415v1673q0 35 24.5 59.5t61.5 24.5q35 0 59.5 -24.5t24.5 -59.5l4 -1673h-174zM750 270v666h467v-666h-467zM870 371h224v241h-224v-241zM913 2181v817l119 31q51 12 230 51q141 31 241 31h17q104 -2 104 -49q0 -2 -1 -6 t-2 -11.5t-1 -13.5l-6 -49q-2 -16 -2 -49q0 -23 10 -37q10 -12 31 -10q49 8 159 14l170 8l68 4h-2q20 -43 20 -106q0 -74 -26.5 -166t-26.5 -234q0 -100 17 -243q-16 -4 -43 -6q-6 0 -101 -17q-82 -14 -135 -16q-82 -4 -125 -4q-63 0 -94 18.5t-21 52.5q6 18 7 35 q0 59 -95 60h-10q-125 -4 -375 -99q-45 -16 -77 -16q-25 0 -50 10zM1409 235.5q0 36.5 26.5 63.5t63.5 27t62 -27q25 -29 24 -63q0 -37 -24.5 -61.5t-61.5 -24.5t-63.5 24.5t-26.5 61zM1409 973q0 37 26.5 61.5t63.5 24.5t61.5 -24.5t24.5 -61.5q0 -35 -24 -64 q-25 -27 -62 -26.5t-63.5 27t-26.5 63.5z" />
<glyph unicode="&#xff;" horiz-adv-x="1705" />
<glyph unicode="&#x152;" horiz-adv-x="3737" d="M86 -10v1046h141v-1046h-141zM369 -10v1046h106q137 272 250 273h424q66 0 135 -82q74 -86 127 -191h96v-1046h-1138zM764 1124.5q0 -26.5 18.5 -45t44.5 -18.5h213q27 0 45.5 18.5t18.5 45t-18.5 45t-45.5 18.5h-213q-27 0 -45 -18.5t-18 -45zM1651 -10v1046h143v-1046 h-143zM1966 606v19l45 51q25 27 121 110q90 78 188 142q96 61 233.5 110t268.5 49l-6 -2q129 0 264 -49q137 -49 238 -116q102 -68 184 -136q86 -70 127 -116l43 -47v-17l-45 -51q-25 -27 -121 -111q-90 -78 -188 -141q-94 -61 -233.5 -110.5t-266.5 -49.5q-129 0 -264 49 q-133 49 -235.5 117t-184.5 135q-74 61 -125 115zM2527 606q0 -119 84 -203q82 -82 201 -81l-6 -7q119 0 202.5 84t83.5 203t-81 201q-84 84 -203 84q-117 0 -199 -82t-82 -199zM2679 600q0 51 37 92q37 39 90 39t92 -39t39 -92t-39 -90t-92 -37t-90 37t-37 90z" />
<glyph unicode="&#x153;" horiz-adv-x="3065" d="M119 -12v1075q0 23 14 37q16 16 37 16h78l59 121q20 45 74 45h324q53 0 73 -45l58 -121h940v-2q23 0 37 -14.5t14 -36.5v-1075q0 -23 -14.5 -37t-36.5 -14h-1606q-23 0 -37 14t-14 37zM1937 -244l490 791h-328l955 885l-396 -701h324z" />
<glyph unicode="&#x2c6;" horiz-adv-x="1587" d="M125 -326v1674q0 35 24.5 59.5t61.5 24.5q35 0 59.5 -25t24.5 -59l4 -1674h-174zM397 440v817l119 31q51 12 229 51q141 31 242 31h17q104 -2 104 -49q0 -2 -1 -6t-2 -11.5t-1 -13.5l-6 -49q-2 -16 -2 -49q0 -23 10 -37q10 -12 31 -10q49 8 159 14l170 8l68 4h-2 q20 -43 20 -106q0 -74 -26.5 -166t-26.5 -233q0 -100 17 -244q-16 -4 -43 -6q-6 0 -101 -17q-82 -14 -135 -16q-82 -4 -125 -4q-63 0 -94 18.5t-21 53.5q6 18 7 34q0 59 -95 60h-10q-125 -4 -375 -99q-45 -16 -78 -16q-24 0 -49 10z" />
<glyph unicode="&#x2dc;" horiz-adv-x="1024" d="M-596 983q0 356 252 608t608.5 252t608 -252t251.5 -608t-251.5 -608t-608 -252t-608.5 252t-252 608zM-84 481h297l-80 -80h258l-80 80h297v475h-340l297 342h-229v277h-154v-277h-229l295 -342h-332v-475zM4 567v303h518v-303h-518z" />
<glyph unicode="&#x2013;" horiz-adv-x="1024" d="M82 -295v1725h860v-1725h-860z" />
<glyph unicode="&#x2014;" horiz-adv-x="2048" d="M82 -295v1725h1884v-1725h-1884z" />
<glyph unicode="&#x2018;" horiz-adv-x="1916" d="M121 -217v567l194 -196l312 311l178 -178l-311 -312l194 -194zM121 891v567h567l-194 -194l311 -312l-178 -178l-312 313zM1114 287l178 178l312 -311l194 194v-565h-567l194 194zM1114 952l311 312l-194 194h565v-567l-192 194l-312 -311z" />
<glyph unicode="&#x2019;" horiz-adv-x="1859" d="M29 801l2 2q246 244 573 332q162 43 326 43t325 -43q326 -90 572 -332h2q0 -4 4 -4l-115 -115l-4 4q-211 213 -497 289q-141 39 -289 39t-285 -39q-287 -76 -498 -289q-2 0 -2 -2zM285 541q174 176 411 239q117 31 234 31t233 -31q231 -63 408 -239l2 -2l-115 -115 q0 2 -2 2q-217 217 -528 217l-4 2q-307 0 -525 -217zM541 285q160 160 387 159.5t387 -159.5q2 0 2 -2l-113 -113q-2 0 -2 2q-113 113 -272.5 113t-272.5 -113l-114 113h-2zM803 27q51 51 129 51t129 -51l-129 -129z" />
<glyph unicode="&#x201c;" horiz-adv-x="1771" d="M106 49v529v14l3 2q2 121 16 233q12 98 53 207q39 104 108.5 176t184.5 121q119 51 277 60v-322q-137 0 -195 -94q-59 -96 -59 -301l-9 -2h172q37 0 64 -27t27 -67v-529q0 -37 -27 -63.5t-64 -26.5h-460q-37 0 -64 26.5t-27 63.5zM1010 53v529q0 10 2 12l4 4 q0 139 14 233q16 102 55 207t109 176.5t184 120.5q119 51 277 60v-322q-139 0 -197 -94q-59 -96 -59 -301l-8 -2h172q37 0 63.5 -26.5t26.5 -67.5v-529q0 -37 -27 -63.5t-63 -26.5h-459q-41 0 -67.5 26.5t-26.5 63.5z" />
<glyph unicode="&#x201d;" horiz-adv-x="1771" d="M106 49v529v14l3 2q2 121 16 233q12 98 53 207q39 104 108.5 176t184.5 121q119 51 277 60v-322q-137 0 -195 -94q-59 -96 -59 -301l-9 -2h172q37 0 64 -27t27 -67v-529q0 -37 -27 -63.5t-64 -26.5h-460q-37 0 -64 26.5t-27 63.5zM1010 53v529q0 10 2 12l4 4 q0 139 14 233q16 102 55 207t109 176.5t184 120.5q119 51 277 60v-322q-139 0 -197 -94q-59 -96 -59 -301l-8 -2h172q37 0 63.5 -26.5t26.5 -67.5v-529q0 -37 -27 -63.5t-63 -26.5h-459q-41 0 -67.5 26.5t-26.5 63.5z" />
<glyph unicode="&#x2026;" horiz-adv-x="5806" d="M109 610q0 78 55 133.5t133 55.5v-2q76 0 131 -55.5t55 -131.5q0 -78 -55 -133t-131 -55q-78 0 -133 55t-55 133zM774 610q0 76 55.5 131.5t133.5 55.5h-2q78 0 133 -55.5t55 -131.5q0 -78 -55.5 -133t-132.5 -55q-76 0 -131.5 55t-55.5 133zM1440 610q0 76 55 131.5 t133 55.5t133.5 -55.5t55.5 -131.5q0 -78 -55.5 -133t-133.5 -55t-133 55t-55 133zM2046 612.5q0 77.5 55.5 133t132.5 55.5v-2q76 0 131.5 -55.5t55.5 -131.5q0 -78 -55.5 -133t-131.5 -55q-78 0 -133 55.5t-55 133zM2712 612q0 76 55 131.5t133 55.5h-2q78 0 133 -55.5 t55 -131.5q0 -78 -55 -133t-133 -55q-76 0 -131 55t-55 133zM3377 612q0 76 55.5 131.5t133 55.5t133 -55.5t55.5 -131.5q0 -78 -55.5 -133t-133 -55t-133 55t-55.5 133zM3983 614.5q0 77.5 55.5 133t133.5 55.5v-2q76 0 131 -55.5t55 -131.5q0 -78 -55 -133t-131 -55 q-78 0 -133.5 55.5t-55.5 133zM4649 614q0 76 55.5 131.5t132.5 55.5h-2q78 0 133.5 -55.5t55.5 -131.5q0 -78 -55.5 -133t-133.5 -55q-76 0 -131 55t-55 133zM5315 614q0 76 55 131.5t133 55.5t133 -55.5t55 -131.5q0 -78 -55 -133t-133 -55t-133 55t-55 133z" />
<glyph unicode="&#x2039;" horiz-adv-x="808" d="M6 383v457h230l454 456v-1368l-454 455h-230z" />
<glyph unicode="&#x203a;" horiz-adv-x="1820" d="M29 379v457h229l455 456v-1368l-455 455h-229zM819 463q72 59 72 147t-72 148v4l70 135q154 -102 153.5 -286.5t-153.5 -284.5zM977 150q121 72 190 192q72 125 72 266.5t-72 265.5q-70 121 -190 193v4l67 133q158 -90 252 -248q96 -162 97 -346v-6q0 -188 -95 -344 q-94 -158 -251 -246zM1133 1368l69 137h-2q242 -135 387 -375q145 -242 146 -526q0 -289 -144 -526q-145 -242 -387 -373l-67 135q203 113 325 318q123 203 123 446.5t-123 446.5q-124 204 -327 317z" />
<glyph unicode="&#x2122;" horiz-adv-x="3790" d="M86 1303q0 55 39 94t94 39t94 -39l361 -359l973 246l129 -129l-760 -461l344 -344l305 29l129 -133l-332 -187l-188 -333l-129 131l29 303l-347 346l-458 -760l-129 129l245 973l-360 358q-39 40 -39 97zM1950 96v953q0 16 6 30l559 -477l-559 -536q-6 16 -6 30zM2028 -2 l565 543l217 -179l219 179l563 -543q-20 -4 -24 -4h-1516q-4 0 -24 4zM2028 1147q29 4 30 4h1512q2 0 30 -4l-563 -481l-74 -62l-147 -119l-152 119l-73 62zM3109 600l559 479q6 -14 6 -30v-953q0 -14 -6 -30z" />
<glyph unicode="&#xe000;" horiz-adv-x="1435" d="M0 1435h1435v-1435h-1435v1435z" />
<glyph unicode="&#xfb01;" horiz-adv-x="3751" d="M111 -47q0 94 67.5 161.5t161.5 67.5t161.5 -67.5t67.5 -161.5t-67.5 -161.5t-161.5 -67.5t-161.5 67.5t-67.5 161.5zM113 850q307 0 563 -150q260 -152 409 -407q150 -258 154 -563h-328q-2 328 -233 559q-233 233 -563 233v328h-2zM113 1104v330v-2q346 0 659 -136 q311 -135 543 -362q227 -225 364 -545q133 -313 138 -663h-328q-4 377 -186 692q-184 317 -501.5 501.5t-688.5 184.5zM1952 571.5q0 356.5 252 608.5t606 252q356 0 608 -252t252 -608.5t-252 -608.5t-608 -252q-354 0 -606 252t-252 608.5zM2574 625l33 -93l12 9 q72 66 111 80q0 -12 -6 -43l-88 -373q-12 -61 -13 -123q0 -53 21 -74q18 -20 53 -20q45 0 146 59q98 59 182 152h6l-4 8l-37 78l-10 -9q-29 -29 -70 -55q-45 -29 -51 -31v11q0 16 6 43l94 385q12 51 13 116q0 37 -13 62q-14 25 -45 24q-53 0 -147 -57q-96 -59 -187 -143z M2783 1026q0 -49 29 -82q27 -31 74 -31h2q57 0 98 43q41 45 41 101q0 47 -27 73q-31 35 -80 35v-2q-63 -2 -100 -45t-37 -92z" />
<glyph unicode="&#xfb02;" horiz-adv-x="3796" d="M111 -47q0 94 67.5 161.5t161.5 67.5t161.5 -67.5t67.5 -161.5t-67.5 -161.5t-161.5 -67.5t-161.5 67.5t-67.5 161.5zM113 850q307 0 563 -150q260 -152 409 -407q150 -258 154 -563h-328q-2 328 -233 559q-233 233 -563 233v328h-2zM113 1104v330v-2q346 0 659 -136 q311 -135 543 -362q227 -225 364 -545q133 -313 138 -663h-328q-4 377 -186 692q-184 317 -501.5 501.5t-688.5 184.5zM1968 125q0 55 41 96t96 41l-6 -6q59 0 99 -39q41 -41 40 -94q0 -59 -38.5 -98t-98.5 -39q-53 0 -94 41q-39 39 -39 98zM1974 710.5q0 57.5 41 98.5 t96 41l-6 -6q59 0 99 -39q41 -41 41 -98q0 -55 -39 -94.5t-99 -39.5q-53 0 -94 41q-39 39 -39 96.5zM1980 1296q0 55 41 96.5t97 41.5l-7 -7q59 0 99 -38q41 -41 41 -95q0 -59 -39 -98t-98 -39q-53 0 -95 41q-39 39 -39 98zM2439 0v272h1239v-272h-1239zM2439 582v272h1239 v-272h-1239zM2439 1161v273h1239v-273h-1239z" />
<glyph unicode="&#xfb03;" horiz-adv-x="5619" d="M111 -47q0 94 67.5 161.5t161.5 67.5t161.5 -67.5t67.5 -161.5t-67.5 -161.5t-161.5 -67.5t-161.5 67.5t-67.5 161.5zM113 850q307 0 563 -150q260 -152 409 -407q150 -258 154 -563h-328q-2 328 -233 559q-233 233 -563 233v328h-2zM113 1104v330v-2q346 0 659 -136 q311 -135 543 -362q227 -225 364 -545q133 -313 138 -663h-328q-4 377 -186 692q-184 317 -501.5 501.5t-688.5 184.5zM1978 -47q0 94 68 161.5t162 67.5t161.5 -67.5t67.5 -161.5t-67.5 -161.5t-161.5 -67.5t-162 67.5t-68 161.5zM1980 850q307 0 564 -150 q260 -152 409 -407q150 -258 154 -563h-328q-2 328 -233 559q-233 233 -564 233v328h-2zM1980 1104v330v-2q346 0 660 -136q311 -135 543 -362q227 -225 364 -545q133 -313 137 -663h-327q-4 377 -187 692q-184 317 -501.5 501.5t-688.5 184.5zM3820 571.5 q0 356.5 251.5 608.5t606.5 252q356 0 608 -252t252 -608.5t-252 -608.5t-608 -252q-354 0 -606 252t-252 608.5zM4442 625l33 -93l12 9q72 66 111 80q0 -12 -6 -43l-88 -373q-12 -61 -13 -123q0 -53 21 -74q18 -20 53 -20q45 0 145 59q98 59 183 152h6l-4 8l-37 78l-10 -9 q-29 -29 -70 -55q-45 -29 -51 -31v11q0 16 6 43l94 385q12 51 12 116q0 37 -12 62q-14 25 -45 24q-53 0 -147 -57q-96 -59 -187 -143zM4651 1026q0 -49 29 -82q27 -31 73 -31h2q57 0 99 43q41 45 41 101q0 47 -27 73q-31 35 -80 35v-2q-63 -2 -100 -45t-37 -92z" />
<glyph unicode="&#xfb04;" horiz-adv-x="5664" d="M111 -47q0 94 67.5 161.5t161.5 67.5t161.5 -67.5t67.5 -161.5t-67.5 -161.5t-161.5 -67.5t-161.5 67.5t-67.5 161.5zM113 850q307 0 563 -150q260 -152 409 -407q150 -258 154 -563h-328q-2 328 -233 559q-233 233 -563 233v328h-2zM113 1104v330v-2q346 0 659 -136 q311 -135 543 -362q227 -225 364 -545q133 -313 138 -663h-328q-4 377 -186 692q-184 317 -501.5 501.5t-688.5 184.5zM1978 -47q0 94 68 161.5t162 67.5t161.5 -67.5t67.5 -161.5t-67.5 -161.5t-161.5 -67.5t-162 67.5t-68 161.5zM1980 850q307 0 564 -150 q260 -152 409 -407q150 -258 154 -563h-328q-2 328 -233 559q-233 233 -564 233v328h-2zM1980 1104v330v-2q346 0 660 -136q311 -135 543 -362q227 -225 364 -545q133 -313 137 -663h-327q-4 377 -187 692q-184 317 -501.5 501.5t-688.5 184.5zM3836 125q0 55 41 96t96 41 l-6 -6q59 0 98 -39q41 -41 41 -94q0 -59 -39 -98t-98 -39q-53 0 -94 41q-39 39 -39 98zM3842 710.5q0 57.5 41 98.5t96 41l-6 -6q59 0 98 -39q41 -41 41 -98q0 -55 -38.5 -94.5t-98.5 -39.5q-53 0 -94 41q-39 39 -39 96.5zM3848 1296q0 55 41 96.5t96 41.5l-6 -7 q59 0 99 -38q41 -41 41 -95q0 -59 -39 -98t-99 -39q-53 0 -94 41q-39 39 -39 98zM4307 0v272h1239v-272h-1239zM4307 582v272h1239v-272h-1239zM4307 1161v273h1239v-273h-1239z" />
</font>
</defs>
</svg>
